<svg width="818" height="434" viewBox="0 0 818 434" fill="none" xmlns="http://www.w3.org/2000/svg">
<g clip-path="url(#clip0_1529_5492)">
<path d="M519.495 433.182C519.251 432.595 518.683 429.738 518.547 428.407C518.339 426.389 516.746 412.471 516.496 410.493C514.632 395.764 512.33 384.496 509.308 375.301C508.311 372.267 507.602 370.484 507.361 370.404C507.265 370.372 506.475 370.919 505.604 371.618C504.733 372.318 503.881 372.89 503.711 372.89C502.976 372.89 503.26 371.732 504.127 371.196C504.431 371.008 505.212 370.694 505.863 370.498C506.513 370.302 507.107 370.086 507.182 370.018C507.314 369.9 505.562 365.364 505.262 365.047C505.176 364.956 505.014 364.979 504.863 365.104C504.501 365.405 503.728 365.191 502.716 364.51C502.245 364.193 501.814 363.933 501.758 363.933C501.559 363.933 500.71 364.846 500.71 365.061C500.71 365.181 501.164 365.509 501.717 365.789C502.775 366.323 503.116 366.726 503.045 367.356C503.021 367.565 503.106 368.056 503.233 368.448C503.48 369.213 503.312 369.679 502.788 369.679C502.381 369.679 501.599 368.766 501.38 368.037C501.226 367.522 501.015 367.262 500.532 366.99C499.719 366.533 499.021 365.712 499.021 365.213C499.021 364.695 499.923 363.48 500.608 363.076C500.968 362.864 501.237 362.525 501.372 362.115C501.576 361.496 501.56 361.449 500.579 359.839C499.435 357.964 498.935 356.586 499.078 355.705C499.397 353.735 501.151 353.649 503.164 355.505C503.885 356.17 505.271 358.058 505.271 358.375C505.271 358.457 504.72 358.13 504.047 357.648C502.918 356.841 501.138 355.828 500.837 355.823C500.597 355.818 500.719 356.921 501.036 357.62C501.211 358.006 501.825 359.022 502.4 359.878C503.238 361.125 503.432 361.534 503.372 361.938C503.312 362.35 503.373 362.469 503.708 362.597C503.933 362.682 504.174 362.717 504.243 362.675C504.313 362.632 504.235 362.08 504.07 361.448C503.752 360.23 503.652 358.525 503.898 358.525C503.978 358.525 504.083 358.813 504.13 359.165C504.177 359.516 504.829 361.1 505.578 362.684C507.096 365.893 509.186 370.762 509.904 372.764C510.411 374.178 510.758 374.643 510.608 373.709C509.961 369.67 509.567 362.35 509.958 361.651C510.141 361.324 510.286 361.712 510.91 364.187C511.968 368.386 512.544 376.801 511.85 377.913C511.698 378.156 511.766 378.591 512.173 379.991C514.215 387.009 516.325 398.289 517.847 410.324C519.508 423.465 520.133 430.37 519.848 432.463C519.698 433.567 519.675 433.615 519.495 433.182ZM504.706 363.349C504.651 363.205 504.49 363.088 504.348 363.088C503.99 363.088 504.021 363.555 504.385 363.636C504.768 363.721 504.828 363.667 504.706 363.349ZM162.533 431.162C162.239 430.246 162.045 428.724 161.387 422.154L160.762 415.901L160.749 399.846C160.737 383.103 160.797 381.101 161.597 371.792C162.065 366.341 164.178 350.53 165.474 342.786C166.647 335.769 168.379 328.259 169.385 325.824C170.319 323.564 171.531 321.176 171.744 321.176C172.072 321.176 172.025 321.478 171.532 322.528C169.764 326.3 169.039 328.892 167.593 336.613C166.211 343.998 163.842 362.734 163.115 372.045C162.553 379.238 162.468 381.928 162.391 395.029C162.306 409.677 162.444 415.566 163.028 422.069C163.224 424.253 163.397 427.295 163.412 428.829C163.44 431.565 163.434 431.619 163.077 431.669C162.794 431.71 162.673 431.597 162.533 431.162ZM574.955 430.347C575.141 430.262 577.916 429.77 581.121 429.253C584.327 428.735 591.206 427.481 596.409 426.466C601.613 425.45 608.34 424.156 611.36 423.59C614.379 423.023 620.177 421.917 624.244 421.132C628.311 420.346 631.759 419.703 631.906 419.703C632.103 419.703 632.041 419.853 631.669 420.278C631.391 420.594 631.136 420.936 631.102 421.038C631.023 421.274 619.157 423.428 610.6 424.76C606.976 425.324 600.21 426.435 595.565 427.229C590.919 428.024 584.534 429.05 581.375 429.511C578.216 429.971 575.403 430.382 575.124 430.424C574.718 430.485 574.685 430.47 574.955 430.347ZM544.053 422.975C542.766 419.084 541.574 415.52 541.403 415.056L541.092 414.211L539.251 414.235C537.823 414.254 537.311 414.325 536.966 414.551C536.051 415.151 533.605 414.564 532.612 413.506C532.409 413.29 532.281 413.075 532.328 413.028C532.375 412.981 532.862 413.096 533.411 413.285C534.818 413.769 535.091 413.626 533.978 412.987C532.78 412.299 532.333 411.828 532.612 411.55C532.769 411.393 533.22 411.451 534.626 411.81C535.623 412.065 536.991 412.347 537.665 412.439C538.339 412.53 539.243 412.683 539.672 412.779C540.102 412.876 540.482 412.926 540.517 412.891C540.581 412.827 538.841 408.254 537.965 406.183C537.262 404.52 534.931 399.985 534.156 398.772L533.47 397.699L532.744 398.434C532.345 398.839 531.778 399.37 531.484 399.615C530.74 400.234 530.799 400.638 531.747 401.4C533.001 402.409 533.601 403.08 533.697 403.584C533.908 404.687 533.351 404.768 531.807 403.859C529.622 402.573 528.652 401.173 529.071 399.909C529.413 398.878 529.91 398.259 530.732 397.839C531.176 397.612 531.759 397.196 532.027 396.914L532.513 396.401L532.086 395.673C531.464 394.611 530.29 393.056 529.272 391.945C528.782 391.41 528.466 390.973 528.569 390.973C528.957 390.973 530.566 392.014 531.694 392.995C532.942 394.08 534.302 395.97 536.3 399.394C539.807 405.404 543.487 415.621 545.379 424.604C545.702 426.138 546.088 427.914 546.237 428.552C546.385 429.189 546.481 429.787 546.45 429.88C546.419 429.973 545.341 426.866 544.053 422.975ZM471.347 427.095C470.898 422.568 470.825 421.192 470.633 413.639C470.437 405.96 470.425 405.782 470.03 404.888C469.577 403.862 469.522 402.923 469.88 402.296C470.013 402.064 470.125 401.596 470.128 401.256C470.133 400.685 470.044 400.572 468.955 399.764C467.519 398.699 466.411 397.492 465.932 396.472C465.391 395.322 465.493 395.23 466.347 396.097C467.128 396.889 469.502 398.578 469.836 398.578C470.386 398.578 468.556 382.988 466.84 373.059C465.132 363.179 464.732 360.545 464.747 359.286L464.762 357.934L465.431 359.962C466.272 362.514 466.719 364.41 467.584 369.088C469.226 377.97 470.745 389.499 471.319 397.433C471.424 398.894 471.606 400.178 471.759 400.545C471.976 401.064 471.986 401.292 471.817 401.895C471.705 402.294 471.645 403.102 471.682 403.689C471.762 404.946 472.183 405.587 473.545 406.524C474.793 407.382 475.504 408.094 475.636 408.619C475.899 409.668 475.065 409.527 472.962 408.169C472.422 407.82 471.934 407.535 471.878 407.535C471.821 407.535 471.828 408.923 471.892 410.619C471.956 412.316 472.011 416.09 472.013 419.006C472.015 421.923 472.078 424.242 472.152 424.161C472.226 424.079 472.414 423.024 472.57 421.816C473.5 414.606 474.277 411.963 475.858 410.625C476.509 410.074 476.603 410.156 476.208 410.929C475.674 411.976 475.266 414.088 474.61 419.196C473.914 424.614 473.753 425.582 473.493 425.895C473.231 426.211 472.589 426.184 472.309 425.846C472.102 425.597 472.064 425.639 471.96 426.226C471.895 426.589 471.838 427.399 471.833 428.026C471.828 428.654 471.762 429.167 471.688 429.167C471.613 429.167 471.46 428.235 471.347 427.095ZM467.769 426.335C467.159 426.036 464.221 423.218 464.221 422.932C464.221 422.742 466.713 423.795 467.684 424.396C468.693 425.019 469.289 425.636 469.289 426.054C469.289 426.676 468.69 426.786 467.769 426.335ZM408.231 425.756C408.112 425.388 407.648 421.085 407.542 419.365C407.423 417.447 406.857 410.264 406.609 407.535C405.9 399.728 403.668 388.536 401.528 382.059C400.892 380.133 400.818 379.995 400.466 380.084C399.954 380.212 399.756 379.924 399.537 378.734C399.436 378.184 399.235 377.604 399.092 377.446C398.867 377.197 398.864 377.144 399.075 377.063C399.21 377.011 399.37 376.743 399.43 376.468C399.491 376.193 399.698 375.826 399.892 375.654C400.243 375.342 400.244 375.343 400.134 375.944C399.94 377.004 400.275 377.571 401.44 378.159C403.457 379.177 405.247 380.856 406.385 382.799C406.622 383.204 407.219 384.467 407.712 385.606C408.204 386.745 408.673 387.675 408.752 387.672C408.831 387.666 409.258 387.482 409.701 387.257C410.443 386.879 410.526 386.869 410.78 387.123C411.176 387.519 410.974 387.849 409.926 388.52L409.001 389.112L409.269 389.916C409.416 390.358 409.552 390.74 409.571 390.764C409.589 390.788 409.88 390.693 410.217 390.553C411.289 390.105 412.186 390.349 411.928 391.02C411.852 391.218 409.814 392.216 407.938 392.973C407.861 393.004 407.798 392.899 407.798 392.739C407.798 392.58 408.136 392.112 408.549 391.699L409.3 390.947L408.703 390.116C408.078 389.247 408.079 389.247 406.912 389.564C406.454 389.688 406.562 389.387 407.125 388.97L407.634 388.594L406.172 385.721C404.998 383.412 404.467 382.569 403.473 381.431C402.276 380.062 401.561 379.412 401.413 379.56C401.374 379.599 401.688 380.491 402.112 381.542C404.664 387.871 407.27 400.599 407.885 409.732C407.944 410.615 408.103 412.554 408.238 414.042C408.583 417.829 408.756 425.697 408.499 425.856C408.391 425.923 408.271 425.877 408.231 425.756ZM790.028 422.238C789.472 415.562 790.419 405.059 792.48 395.029C793.439 390.361 793.756 388.784 793.881 388.053C794.031 387.182 794.263 387.402 794.407 388.549C794.544 389.649 794.302 392.32 793.728 396.043C793.505 397.484 793.239 399.309 793.136 400.099C793.033 400.889 792.836 402.372 792.699 403.395C792.561 404.417 792.225 407.231 791.951 409.648C791.534 413.333 790.857 418.63 790.279 422.745L790.148 423.675L790.028 422.238ZM811.539 423.333C811.314 423.061 811.393 421.017 811.71 418.943C811.795 418.385 811.983 416.522 812.128 414.802C812.506 410.302 812.586 409.659 812.734 409.923C812.993 410.386 813.388 412.732 813.5 414.464C813.639 416.627 813.148 422.622 812.784 423.21C812.512 423.649 811.856 423.714 811.539 423.333ZM816.758 422.787C816.385 421.833 816.922 416.822 817.578 415.14C817.79 414.596 817.923 415.994 817.942 418.99C817.957 421.343 817.903 422.22 817.717 422.666C817.423 423.371 817.007 423.423 816.758 422.787ZM784.364 420.337C783.525 417.777 783.196 414.749 782.997 407.724C782.775 399.915 783.145 377.449 783.576 372.552C783.629 371.948 783.789 369.857 783.932 367.905C784.076 365.953 784.3 363.405 784.432 362.243C784.563 361.081 784.829 358.419 785.022 356.328C785.395 352.293 785.622 350.43 785.76 350.293C785.839 350.213 785.817 351.797 785.613 360.638C785.566 362.682 785.414 366.979 785.276 370.186C784.891 379.112 784.748 403.395 785.039 410.493C785.45 420.538 785.274 423.112 784.364 420.337ZM460.28 421.111C460.218 421.049 460.167 420.855 460.167 420.679C460.167 420.31 461.485 419.648 462.049 419.734C462.342 419.779 462.255 419.904 461.513 420.506C460.606 421.242 460.475 421.307 460.28 421.111ZM793.223 420.679C792.905 420.225 792.899 419.19 793.204 417.591C794.046 413.169 794.842 409.472 794.981 409.333C795.264 409.05 795.53 410.067 795.618 411.76C795.68 412.971 795.59 414.113 795.249 416.408C794.762 419.694 794.59 420.414 794.202 420.803C793.848 421.157 793.529 421.117 793.223 420.679ZM747.553 419.147C747.315 417.133 747.142 414.879 746.67 407.62C746.074 398.454 745.491 390.491 745.149 386.833C744.966 384.881 744.628 381.04 744.398 378.298C743.516 367.812 742.182 356.317 741.008 349.09C740.686 347.107 740.423 345.453 740.423 345.414C740.423 345.121 739.843 345.492 739.066 346.283C738.182 347.183 738.156 347.233 738.47 347.466C738.65 347.6 738.86 347.709 738.935 347.709C739.267 347.709 739.018 348.015 738.405 348.359C737.971 348.604 737.595 348.698 737.327 348.631C736.974 348.542 736.808 348.669 736.164 349.513C734.08 352.245 732.417 355.419 731.486 358.441C730.585 361.364 730.193 365.261 730.639 366.868C730.883 367.747 730.724 368.296 730.185 368.431C729.661 368.563 728.963 368.102 728.618 367.399C728.49 367.137 728.335 366.278 728.274 365.488L728.162 364.053L727.35 363.317C726.248 362.318 725.174 362.016 723.042 362.103C721.664 362.159 721.25 362.248 720.311 362.689C719.047 363.282 717.661 364.439 716.713 365.692C715.914 366.749 715.673 366.898 715.147 366.658C714.449 366.34 714.319 365.783 714.748 364.942C715.577 363.316 717.648 361.596 719.766 360.773C721.206 360.213 723.69 360.135 724.795 360.615C726.043 361.157 726.989 361.888 727.584 362.768L728.175 363.643L728.308 362.816C729.24 356.995 730.973 352.777 734.111 348.694C734.516 348.166 734.848 347.664 734.848 347.578C734.848 347.433 730.748 345.433 724.653 342.606C720.618 340.735 714.869 338.327 706.577 335.035C697.802 331.552 694.254 330.277 685.605 327.496C682.26 326.42 676.673 324.601 673.188 323.454C665.815 321.026 648.217 315.465 632.561 310.615C629.773 309.752 625.212 308.319 622.425 307.432C610.787 303.725 601.933 301.583 585.598 298.521C579.426 297.365 574.889 296.358 574.226 295.998C574.069 295.914 572.117 295.493 569.887 295.063C567.657 294.633 562.792 293.517 559.076 292.583C550.257 290.368 547.501 289.703 544.125 288.974C539.247 287.919 530.499 285.682 527.232 284.652C525.345 284.058 522.843 282.864 521.968 282.141C521.137 281.455 520.579 280.289 520.733 279.562C520.977 278.405 521.869 277.035 522.844 276.32C524.157 275.356 526.455 274.312 528.837 273.598C529.952 273.264 531.275 272.804 531.777 272.576C532.279 272.348 532.717 272.189 532.751 272.223C532.785 272.256 532.441 272.631 531.987 273.056C531.462 273.548 530.493 274.147 529.324 274.704C525.684 276.438 524.661 276.993 523.919 277.637C523.19 278.269 522.502 279.333 522.502 279.829C522.502 280.239 523.761 281.233 525.062 281.849C527.474 282.991 535.943 285.265 545.646 287.374C546.993 287.667 552.2 288.923 557.218 290.166C565.35 292.18 570.805 293.374 576.898 294.475C581.119 295.237 585.858 296.204 587.625 296.662C588.647 296.927 590.548 297.39 591.848 297.689C593.396 298.045 594.318 298.343 594.516 298.551C594.682 298.725 594.96 298.868 595.134 298.868C595.786 298.868 603.588 300.587 608.189 301.745C614.009 303.209 616.188 303.84 625.381 306.727C633.393 309.242 643.987 312.557 650.129 314.47C658.847 317.185 666.968 319.775 673.273 321.85C676.896 323.043 682.598 324.899 685.943 325.975C694.675 328.783 698.171 330.042 707.259 333.657C717.819 337.857 722.319 339.789 729.708 343.296C733.059 344.887 735.872 346.186 735.958 346.184C736.044 346.184 736.685 345.679 737.382 345.067C738.079 344.454 738.944 343.765 739.304 343.534L739.959 343.115L739.851 342.195C739.68 340.738 737.561 329.249 737.377 328.781C737.286 328.549 737.02 327.256 736.786 325.908C736.215 322.62 736.003 321.832 734.943 319.064C734.445 317.762 733.72 315.709 733.332 314.501C731.181 307.803 729.001 302.274 726.982 298.389C725.579 295.691 724.948 294.689 724.066 293.759C723.736 293.412 723.508 293.088 723.557 293.039C723.606 292.989 724.094 293.253 724.641 293.624C725.892 294.473 727.365 296.197 728.299 297.906C728.695 298.632 729.311 299.69 729.666 300.256C731.389 302.999 734.383 311.478 735.622 317.12C735.877 318.282 736.133 319.288 736.19 319.356C736.247 319.423 736.291 317.484 736.289 315.046C736.283 311.863 736.348 310.364 736.512 309.726C736.914 308.162 737.074 308.515 737.376 311.628C737.475 312.65 737.598 313.867 737.65 314.332C737.953 317.061 738.181 323.135 738.049 324.979L737.904 327.007L739.258 333.936C740.002 337.746 740.69 341.269 740.785 341.764C740.927 342.501 741.01 342.644 741.24 342.554C742.548 342.04 744.271 342.185 745.36 342.901C746.292 343.514 746.532 343.976 746.468 345.032C746.413 345.92 746.36 345.908 746.063 344.94C745.734 343.869 743.534 343.453 741.967 344.164C741.348 344.445 741.245 344.559 741.322 344.878C741.548 345.819 742.827 353.765 743.369 357.596C744.065 362.516 745.151 371.973 745.658 377.538C745.853 379.675 746.198 383.326 746.426 385.65C746.852 390.013 747.455 397.656 747.964 405.169C748.407 411.707 748.358 420.886 747.88 420.886C747.814 420.886 747.667 420.103 747.553 419.147ZM459.437 418.795C458.508 417.891 458.149 417.226 458.032 416.187C457.909 415.097 458.371 412.221 458.892 410.836C459.128 410.207 459.323 409.378 459.323 408.994C459.323 408.131 459.838 407.244 460.423 407.097C460.663 407.037 461.178 407.036 461.569 407.097C462.392 407.222 464.39 407.889 464.39 408.039C464.39 408.095 463.627 408.138 462.695 408.135C460.845 408.128 460.593 408.249 460.764 409.062C460.814 409.301 460.634 410.2 460.357 411.101C460.085 411.987 459.771 413.433 459.66 414.315C459.421 416.215 459.558 416.7 460.68 417.917C461.25 418.536 461.367 418.768 461.281 419.11C461.105 419.813 460.351 419.684 459.437 418.796V418.795ZM633.567 418.508C633.175 417.874 634.115 415.507 635.449 413.769C637.589 410.98 642.894 407.137 647.361 405.14C650.357 403.8 651.253 403.597 654.268 403.574L656.887 403.555L658.122 402.815C659.693 401.875 662.219 401.004 663.804 400.855C664.69 400.772 665.446 400.821 666.502 401.031C667.308 401.191 668.008 401.282 668.057 401.233C668.105 401.185 667.771 400.731 667.313 400.225C664.4 397.007 662.763 393.648 661.766 388.845C661.398 387.072 661.243 380.46 661.527 378.651C662.008 375.583 663.34 371.147 664.449 368.919C668.155 361.469 674.934 353.587 681.128 349.524C686.702 345.868 691.535 344.827 699.393 345.59C703.423 345.981 705.404 346.652 708.012 348.509C710.242 350.096 712.31 353.593 712.729 356.484C712.968 358.143 712.839 361.505 712.449 363.741C712.176 365.308 711.877 365.923 711.868 364.939C711.845 362.537 711.345 356.444 711.107 355.652C710.41 353.335 708.562 350.756 706.676 349.468C704.231 347.799 701.307 347.202 695.572 347.203C690.573 347.203 687.087 348.113 683.409 350.374C678.518 353.382 674.108 357.744 669.701 363.933C665.786 369.432 663.756 374.902 663.367 381.002C662.99 386.915 663.88 391.742 666.158 396.132C667.33 398.391 669.417 401.528 670.592 402.798C671.116 403.364 671.51 403.863 671.467 403.906C671.423 403.949 670.794 403.491 670.068 402.887C669.179 402.147 668.605 401.79 668.308 401.792C667.439 401.799 664.433 402.287 663.205 402.622C661.599 403.06 659 404.365 658.406 405.031C657.956 405.536 657.921 405.545 656.993 405.401C656.47 405.32 655.092 405.26 653.93 405.267C652.092 405.279 651.645 405.34 650.477 405.742C646.665 407.052 640.778 410.875 637.782 413.987C636.782 415.026 635.131 417.026 634.356 418.14C633.955 418.716 633.753 418.81 633.567 418.508ZM365.301 417.935C365.07 417.581 365.057 417.383 365.22 416.625C365.412 415.729 366.68 411.055 367.158 409.484C367.461 408.487 367.502 408.548 365.229 406.632C364.441 405.967 363.11 404.822 362.273 404.089C358.465 400.751 355.938 399.154 353.117 398.302C351.757 397.891 351.398 397.854 348.95 397.872C347.476 397.883 345.821 397.981 345.27 398.089C344.14 398.312 343.92 398.225 344.364 397.734C345.563 396.409 350.278 395.631 353.097 396.293C355.184 396.784 356.621 397.446 358.848 398.943C361.897 400.993 364.941 403.872 366.681 406.35C367.136 406.999 367.561 407.531 367.625 407.532C367.802 407.538 368.424 405.42 370.145 398.956C370.49 397.659 370.756 396.943 370.856 397.043C370.943 397.13 371.053 398.072 371.1 399.134C371.204 401.495 370.915 403.399 369.867 407.24C369.46 408.733 369.171 410.027 369.226 410.116C369.281 410.204 369.245 410.327 369.146 410.388C369.047 410.449 368.535 412.133 368.009 414.129C367.483 416.126 366.934 417.893 366.79 418.055C366.398 418.496 365.628 418.434 365.301 417.935ZM373.036 417.243C372.319 416.741 372.229 417.051 376.962 403.817C378.607 399.216 380.745 393.303 381.713 390.678C382.681 388.053 383.472 385.857 383.472 385.798C383.472 385.481 385.619 380.946 385.803 380.875C386.167 380.735 386.196 380.911 386.008 382.121C385.751 383.769 384.703 387.276 383.207 391.489C382.499 393.482 381.363 396.711 380.683 398.663C380.003 400.614 378.5 404.911 377.345 408.211C376.189 411.511 375.036 414.838 374.783 415.605C374.499 416.463 374.183 417.097 373.961 417.253C373.514 417.566 373.497 417.566 373.036 417.243ZM506.385 417.319C506.343 417.189 506.141 416.285 505.937 415.309C505.732 414.333 505.125 412.014 504.588 410.155C504.051 408.296 503.219 405.254 502.74 403.395C502.26 401.536 501.344 398.075 500.703 395.705C500.062 393.335 499.338 390.559 499.096 389.537C498.853 388.514 498.247 386.233 497.751 384.467C497.254 382.7 496.418 379.697 495.893 377.791C495.369 375.886 494.267 371.931 493.446 369.003C492.625 366.075 491.332 361.322 490.573 358.441C488.599 350.948 487.898 348.577 486.188 343.604C485.354 341.178 484.696 339.168 484.727 339.137C484.798 339.066 486.572 343.508 487.691 346.558C488.68 349.251 490.213 354.289 492.017 360.773C492.72 363.301 493.629 366.472 494.036 367.82C495.523 372.746 499.584 386.908 500.288 389.621C500.685 391.155 501.317 393.474 501.691 394.776C503.251 400.197 505.053 407.698 505.772 411.76C506.385 415.225 506.734 418.389 506.385 417.319ZM149.706 416.965C149.456 416.715 149.444 415.278 149.684 414.411C149.811 413.956 149.944 413.783 150.14 413.821C150.493 413.889 150.648 414.45 150.669 415.74C150.685 416.725 150.507 417.168 150.095 417.168C149.993 417.168 149.818 417.077 149.706 416.965ZM714.337 415.802C713.911 414.738 713.743 413.012 713.736 409.648C713.716 400.27 712.742 390.79 710.845 381.529C710.43 379.503 710.236 377.115 710.485 377.115C710.585 377.115 710.753 377.552 710.858 378.087C710.963 378.621 711.383 380.313 711.792 381.847C713.024 386.465 713.947 391.289 714.395 395.452C714.907 400.196 715.54 414.675 715.286 415.815C715.096 416.667 714.681 416.662 714.337 415.802ZM123.602 415.172C123.404 414.953 123.275 414.283 123.146 412.806C122.919 410.188 122.524 408.654 121.615 406.855C120.549 404.745 119.701 403.546 118.262 402.117C115.793 399.664 112.755 398.775 110.965 399.983C109.646 400.872 108.973 402.271 108.619 404.857C108.461 406.008 108.473 406.324 108.696 406.882C109.021 407.693 109.031 407.866 108.731 407.455C108.508 407.15 108.497 407.15 108.327 407.455C108.181 407.715 108.119 407.607 107.954 406.81C107.694 405.559 106.793 404.331 104.164 401.643C101.678 399.101 99.9349 397.621 97.0499 395.602C92.9736 392.75 89.0296 390.618 86.0017 389.628C83.4001 388.778 81.6842 388.587 75.2586 388.433C72.0067 388.355 69.1419 388.241 68.8924 388.179C68.4784 388.076 68.431 388.116 68.3497 388.633C68.1673 389.794 68.0506 392.965 67.9028 400.777C67.767 407.956 67.6603 409.798 67.2962 411.255L67.1906 411.677L67.0474 411.172C66.6591 409.803 66.5213 405.319 66.6266 397.488C66.6867 393.023 66.7783 388.945 66.8302 388.426L66.9245 387.482L66.1081 387.178C64.5867 386.61 60.5194 384.517 59.6331 383.846C58.3822 382.899 53.429 381.091 51.1482 380.748L50.3649 380.631L49.6669 382.803C48.891 385.218 47.4673 390.787 47.0597 393.003C46.8521 394.131 46.2943 400.235 46.2882 401.444C46.2872 401.64 46.2448 401.647 46.0758 401.478C45.7701 401.172 45.7845 394.008 46.094 392.411C46.6808 389.385 47.6864 385.101 48.3071 382.985C48.6826 381.704 48.9899 380.591 48.9899 380.511C48.9899 380.261 45.5938 379.816 41.1346 379.482C37.0756 379.177 36.8316 378.941 40.2578 378.633C42.4257 378.438 46.1908 378.59 48.4831 378.964C49.6061 379.148 49.6188 379.137 50.2536 377.455C51.7008 373.619 53.1693 370.738 54.7578 368.616C56.3478 366.491 57.1684 366.552 55.8734 368.698C54.1606 371.536 53.6589 372.572 51.8378 377.029C51.3829 378.142 51.0436 379.139 51.0838 379.244C51.1241 379.349 51.4866 379.487 51.8895 379.55C53.0453 379.733 54.8098 380.293 57.135 381.215C58.786 381.87 59.5092 382.26 60.2602 382.901C61.1915 383.697 65.8486 386.161 66.6408 386.278C66.9289 386.32 66.994 386.196 67.1013 385.398C68.1079 377.908 68.678 374.914 70.3778 368.19C71.7805 362.641 72.6044 360.386 73.229 360.386C73.6513 360.386 73.5396 361.25 72.6391 364.949C69.9566 375.967 68.8443 381.725 68.5581 386.073C68.4742 387.348 68.4281 387.34 76.1033 387.348C82.272 387.353 82.8017 387.378 84.4203 387.731C86.4987 388.183 88.0379 388.72 90.2934 389.78C94.5329 391.772 100.728 395.948 103.411 398.624C104.519 399.729 106.112 401.853 106.878 403.247L107.515 404.406L107.739 403.056C108.16 400.521 109.269 398.931 111.091 398.249C114.048 397.142 117.922 398.846 120.871 402.551C122.089 404.082 123.879 407.597 124.319 409.324C124.611 410.469 125.009 413.446 125.009 414.484C125.009 414.853 124.44 415.48 124.106 415.48C123.981 415.48 123.754 415.342 123.602 415.174L123.602 415.172ZM261.855 415.151C261.696 415.051 261.485 414.143 261.237 412.492C261.03 411.113 260.44 408.046 259.924 405.676C258.518 399.208 258.077 395.154 258.454 392.156C258.889 388.691 258.793 388.374 260.481 398.832C260.766 400.598 261.417 403.906 261.927 406.183C262.438 408.46 262.98 411.252 263.134 412.386C263.393 414.309 263.393 414.477 263.13 414.879C262.842 415.319 262.301 415.434 261.855 415.151ZM264.636 415.151C264.493 414.92 264.494 412.801 264.638 412.012C264.874 410.711 265.754 409.309 266.747 408.652C268.167 407.712 271.33 407.348 272.169 408.028C272.561 408.345 272.562 408.355 272.246 408.704C271.971 409.008 271.732 409.058 270.543 409.058C269.346 409.058 269.025 409.125 268.15 409.563C267.465 409.905 266.968 410.306 266.609 410.806C266.083 411.539 265.221 413.795 265.221 414.439C265.221 415.135 264.881 415.548 264.636 415.151ZM125.575 414.884C125.51 414.716 125.546 414.158 125.653 413.644C125.909 412.425 126.696 411.599 128.111 411.062C129.006 410.723 129.52 410.661 131.885 410.609L134.623 410.55L134.506 410.015C134.442 409.721 134.388 407.389 134.387 404.833C134.384 399.704 134.432 399.425 135.315 399.425C136.391 399.425 136.658 400.793 136.999 408.044C137.106 410.314 137.256 411.733 137.481 412.605C137.841 413.999 137.761 414.532 137.161 414.723C136.683 414.874 135.989 414.364 135.748 413.684C135.648 413.404 135.396 412.961 135.186 412.699C134.809 412.226 134.789 412.222 132.444 412.138C128.635 412.001 127.146 412.481 126.32 414.112C125.752 415.233 125.721 415.265 125.575 414.884ZM379.905 414.743C379.756 414.416 379.815 414.134 380.231 413.18C380.51 412.539 381.162 410.654 381.68 408.99C382.198 407.327 382.661 405.926 382.709 405.878C382.909 405.678 382.776 408.948 382.525 410.422C382.256 411.992 381.471 414.45 381.092 414.907C380.777 415.286 380.11 415.194 379.905 414.743ZM212.229 414.802C211.398 414.467 211.036 413.433 210.306 409.311C209.456 404.509 208.751 400.969 208.519 400.333C208.298 399.73 209.104 400.595 209.743 401.647C210.667 403.169 211.449 405.686 212.176 409.48C212.372 410.503 212.73 412.054 212.972 412.928C213.396 414.462 213.4 414.525 213.1 414.745C212.745 415.004 212.732 415.005 212.229 414.802ZM711.459 414.76C711.037 413.419 710.262 409.638 709.841 406.859C708.31 396.769 704.848 382.966 702.191 376.355C700.442 372.005 699.191 369.216 697.801 366.574C696.275 363.672 695.463 361.9 695.527 361.607C695.572 361.396 695.69 361.504 695.944 361.99C696.139 362.361 697.034 363.844 697.932 365.285C701.534 371.065 704.212 377.602 706.793 386.917C708.188 391.951 710.119 401.231 710.939 406.841C711.521 410.824 711.879 414.971 711.641 414.971C711.577 414.971 711.495 414.876 711.459 414.76ZM252.323 413.915C252.193 413.706 251.996 413.156 251.885 412.694C251.774 412.232 251.274 410.787 250.773 409.483C250.273 408.179 249.412 405.858 248.86 404.324C248.308 402.79 247.36 400.243 246.754 398.663C245.612 395.685 244.399 391.94 243.771 389.452C243.572 388.662 243.038 386.685 242.584 385.058C241.625 381.623 241.191 379.171 241.265 377.622L241.317 376.524L242.951 381.425C243.85 384.12 244.86 387.314 245.196 388.523C246.064 391.648 247.207 395.064 248.333 397.902C249.358 400.486 251.538 406.288 251.538 406.433C251.538 406.48 251.96 407.588 252.476 408.894C254.104 413.02 254.244 414.295 253.066 414.295C252.723 414.295 252.483 414.172 252.323 413.915ZM141.16 412.338C140.862 411.561 141.259 409.445 141.943 408.164L142.324 407.451L142.421 409.732C142.474 410.987 142.453 412.147 142.373 412.309C142.188 412.687 141.301 412.708 141.16 412.338ZM222.83 411.295C222.431 410.424 221.467 407.167 221.562 407.013C221.793 406.639 222.152 406.93 222.571 407.831C223.657 410.168 223.974 411.76 223.353 411.76C223.179 411.76 222.95 411.557 222.83 411.295ZM468.025 410.213C466.213 404.457 461.953 393.141 461.601 393.144C461.335 393.144 461.001 394.385 460.893 395.766C460.778 397.247 460.493 397.741 459.357 398.435C458.549 398.928 458.321 399.23 458.314 399.809C458.306 400.493 458.703 400.998 460.011 401.968C461.621 403.162 462.082 403.74 461.971 404.426C461.893 404.906 461.935 404.983 462.331 405.083C464.587 405.649 467.232 407.299 466.715 407.817C466.424 408.108 465.909 407.94 463.283 406.701C461.911 406.054 461.242 405.624 460.675 405.028C460.256 404.587 459.457 403.875 458.9 403.447C457.574 402.429 457.033 401.843 456.713 401.076C456.336 400.174 456.394 399.456 456.919 398.502C457.308 397.796 457.553 397.58 458.497 397.117C459.557 396.598 459.626 396.528 459.815 395.776C460.076 394.738 460.596 393.715 461.182 393.086C461.641 392.593 461.649 392.551 461.473 391.602C461.338 390.877 461.341 390.575 461.486 390.43C461.76 390.157 461.797 390.225 462.266 391.843C462.496 392.636 463.001 394 463.389 394.875C465.701 400.09 466.238 401.663 467.61 407.254C468.655 411.514 468.832 412.775 468.025 410.213ZM531.241 408.989C530.026 408.484 529.091 407.783 529.091 407.378C529.091 406.76 529.499 406.642 531.202 406.77C532.824 406.892 533.228 407.071 532.3 407.256C532.022 407.312 531.793 407.424 531.793 407.506C531.793 407.587 532.179 407.893 532.65 408.186C534.257 409.185 533.184 409.797 531.241 408.989ZM242.479 408.625C241.996 407.888 241.571 406.014 241.571 404.623C241.571 403.901 241.628 403.31 241.697 403.31C241.767 403.31 241.961 403.776 242.128 404.346C242.295 404.915 242.733 406.016 243.1 406.792C243.822 408.321 243.872 408.545 243.564 408.853C243.235 409.182 242.781 409.087 242.479 408.625ZM718.57 408.101C718.095 405.68 718.04 404.573 718.056 397.733C718.071 391.375 718.306 385.786 718.576 385.348C719.076 384.539 719.373 389.012 719.383 397.48C719.388 402.78 719.327 405.227 719.155 406.521C718.905 408.403 718.725 408.889 718.57 408.101ZM273.107 406.918C273.044 406.855 272.993 406.416 272.993 405.944C272.999 402.805 276.71 400.429 282.043 400.15C284.378 400.027 286.178 400.277 288.61 401.062C290.654 401.722 291.182 402.012 293.214 403.591L294.6 404.669L295.179 403.778C296.242 402.142 298.267 400.511 300.021 399.877C301.103 399.487 302.758 399.221 302.945 399.408C303.156 399.619 302.021 400.417 299.975 401.497C298.047 402.514 295.404 404.449 295.316 404.908C295.283 405.08 295.378 405.289 295.527 405.372C295.965 405.618 295.838 405.856 295.38 405.648C295.061 405.502 294.902 405.508 294.704 405.672C294.486 405.853 294.446 405.831 294.446 405.532C294.446 405.093 294.108 404.871 292.093 403.988C287.376 401.921 281.467 401.545 277.454 403.056C275.637 403.74 274.026 405.122 273.452 406.489C273.326 406.789 273.171 406.982 273.107 406.918ZM32.2057 400.116C31.7363 396.818 31.4773 394.195 30.9194 387.086C30.3936 380.386 29.8348 376.009 28.6221 369.088L28.0299 365.708L27.1493 364.893C25.5694 363.433 21.1261 359.749 19.1836 358.29C16.3914 356.192 13.6068 354.404 11.5394 353.382C8.4355 351.848 3.92962 350.582 1.57161 350.582C0.569818 350.582 0 350.368 0 349.991C0 349.634 0.45842 349.455 1.69635 349.326C3.9357 349.093 8.35284 350.078 11.5601 351.527C15.2293 353.184 20.0847 356.485 25.1707 360.78C26.3321 361.761 27.3057 362.497 27.3343 362.416C27.3629 362.335 27.0427 360.723 26.6228 358.834C26.2029 356.944 25.5187 353.84 25.1023 351.934C23.7849 345.906 22.0144 338.98 20.6741 334.612C18.4107 327.235 17.9066 325.28 17.9066 323.877C17.9066 323.108 18.1586 323.104 18.327 323.871C18.3866 324.143 18.7034 324.997 19.0308 325.77C21.0714 330.586 22.9598 336.376 24.6431 342.977C25.737 347.267 28.1767 357.914 29.1476 362.636L29.5586 364.635L30.7107 365.932C32.5126 367.96 33.96 369.773 35.3889 371.791C36.1128 372.814 37.2645 374.323 37.9484 375.145C38.6323 375.966 39.1919 376.772 39.1919 376.935C39.1919 377.324 38.665 377.791 38.226 377.791C38.0345 377.791 37.7266 377.658 37.5417 377.495C36.9218 376.95 35.3944 375.019 34.0019 373.021C32.5242 370.901 30.4133 368.265 30.2912 368.387C30.2504 368.428 30.373 369.325 30.5637 370.38C32.2828 379.895 33.5823 396.314 33.053 401.831C32.975 402.645 32.8547 403.31 32.7856 403.31C32.7166 403.31 32.4556 401.873 32.2057 400.116ZM21.6287 401.916C21.5428 401.707 21.2784 400.319 21.041 398.832C20.5904 396.008 17.3623 382.399 16.3108 378.89C14.6757 373.433 13.1708 368.059 13.2144 367.833C13.2902 367.439 16.8619 377.234 17.7311 380.219C18.5056 382.879 21.4046 394.143 21.7909 395.994C22.3394 398.621 22.6576 401.374 22.47 401.868C22.2683 402.398 21.8369 402.423 21.6287 401.916ZM306.407 398.029C305.592 396.744 305.454 394.498 306.07 392.542C307.451 388.16 312.521 383.451 317.668 381.77C319.673 381.115 322.24 380.791 323.838 380.992C326.329 381.304 328.822 382.561 329.99 384.093C330.778 385.127 332.088 387.716 332.529 389.111C333.136 391.035 333.065 391.302 332.369 389.707C331.699 388.171 330.992 387.089 329.755 385.701C328.71 384.529 327.404 383.711 325.612 383.107C324.359 382.685 324.117 382.659 322.235 382.741C319.974 382.839 318.124 383.255 316.44 384.044C312.365 385.951 308.561 389.834 307.388 393.282C306.851 394.863 306.549 396.746 306.687 397.661C306.813 398.503 306.755 398.579 306.407 398.029ZM761.708 396.661C761.708 394.515 761.921 391.785 762.07 392.02C762.147 392.141 762.211 393.514 762.212 395.071C762.212 397.476 762.177 397.902 761.961 397.902C761.759 397.902 761.708 397.651 761.708 396.661ZM15.0513 397.032C14.649 395.877 14.9587 391.844 15.3674 392.917C15.5871 393.493 15.9228 396.692 15.8106 397.14C15.6634 397.726 15.2741 397.671 15.0513 397.032ZM42.8244 396.677C42.258 395.43 42.0139 393.777 42.0995 391.767C42.1636 390.265 42.2447 389.886 42.7322 388.818C43.0398 388.144 43.3622 387.593 43.4485 387.593C43.5447 387.593 43.5523 388.952 43.4682 391.1C43.3926 393.029 43.3345 395.272 43.339 396.085C43.3436 396.899 43.3204 397.564 43.2875 397.564C43.2545 397.564 43.0461 397.165 42.8244 396.677ZM343.436 396.585C343.297 396.539 342.251 395.9 341.112 395.165C338.969 393.782 337.821 393.18 337.312 393.174C336.781 393.167 337.002 392.85 337.618 392.734C338.622 392.546 339.68 392.761 341.026 393.427C343.039 394.422 344.732 396.286 343.9 396.592C343.784 396.634 343.575 396.632 343.436 396.585ZM400.281 396.27C396.734 395.848 395.594 395.496 394.783 394.572C393.951 393.624 394.124 393.086 395.799 391.401C396.545 390.65 397.156 389.957 397.156 389.859C397.156 389.762 396.909 389.559 396.607 389.409C396.187 389.2 396.138 389.133 396.396 389.126C396.581 389.121 397.026 389.197 397.383 389.296C398.02 389.473 398.031 389.49 397.918 390.098C397.798 390.75 397.359 391.425 396.281 392.617C395.926 393.01 395.635 393.408 395.635 393.5C395.635 394.012 398.06 394.688 399.916 394.694C400.99 394.699 401.614 394.991 401.691 395.531C401.749 395.937 401.336 396.408 400.967 396.356C400.868 396.342 400.56 396.303 400.281 396.27ZM757.712 395.276C757.585 394.944 758.139 393.475 758.344 393.601C758.57 393.741 758.532 395.096 758.296 395.333C758.022 395.607 757.832 395.588 757.712 395.276ZM529.992 389.391C529.199 388.491 528.791 387.402 528.597 385.673C528.252 382.597 529.239 379.559 531.475 376.812C532.066 376.085 534.044 374.58 534.408 374.58C534.593 374.58 534.486 375.157 534.252 375.416C533.703 376.022 531.083 381 530.733 382.101C530.408 383.125 530.358 383.657 530.358 386.072C530.358 388.396 530.407 388.956 530.653 389.436C530.995 390.101 531.001 390.128 530.794 390.128C530.709 390.128 530.348 389.797 529.992 389.391ZM531.737 389.677C531.543 389.483 531.614 387.537 531.849 386.634C532.291 384.927 534.293 381.989 535.694 380.991C536.099 380.703 536.246 380.673 536.445 380.838C536.658 381.015 536.594 381.225 535.984 382.333C535.593 383.042 534.679 384.572 533.952 385.734C533.225 386.896 532.469 388.284 532.273 388.818C531.889 389.866 531.903 389.844 531.737 389.677ZM394.115 389.114C393.929 388.928 393.777 388.605 393.778 388.396C393.779 387.904 394.362 386.951 394.934 386.509C396.578 385.237 397.494 384.108 397.494 383.354C397.494 382.175 398.178 381.177 398.816 381.423C399.072 381.522 399.069 381.548 398.783 381.709C398.5 381.868 398.479 382.024 398.583 383.217C398.691 384.457 398.668 384.605 398.243 385.386C397.992 385.848 397.302 386.693 396.71 387.265C396.117 387.837 395.587 388.489 395.53 388.714C395.432 389.107 395.012 389.452 394.633 389.452C394.534 389.452 394.301 389.3 394.115 389.114ZM461.148 385.876C458.538 385.677 457.01 385.031 456.268 383.813C455.784 383.02 455.834 381.244 456.382 379.735C456.618 379.084 456.868 378.191 456.938 377.75C457.014 377.275 457.229 376.774 457.466 376.521C457.884 376.076 459.698 375.42 460.48 375.431C460.821 375.436 460.647 375.57 459.745 375.997C458.272 376.694 457.903 377.083 458.011 377.823C458.061 378.163 457.933 378.829 457.676 379.562C457.409 380.322 457.25 381.163 457.235 381.902C457.212 382.996 457.238 383.08 457.743 383.532C458.668 384.361 460.185 384.593 464.221 384.525C467.591 384.468 467.684 384.475 467.684 384.805C467.684 385.54 464.212 386.109 461.148 385.876ZM193.594 380.252C193.594 379.746 193.67 379.285 193.763 379.228C193.869 379.162 193.932 379.507 193.932 380.147C193.932 380.717 193.857 381.171 193.763 381.171C193.67 381.171 193.594 380.757 193.594 380.252ZM472.626 380.623C472.091 380.532 471.654 380.389 471.654 380.307C471.654 380.224 471.701 380.157 471.757 380.157C471.814 380.157 472.914 379.963 474.202 379.726C475.984 379.398 476.626 379.339 476.886 379.479C477.265 379.681 477.342 380.314 477.026 380.63C476.782 380.875 474.067 380.87 472.626 380.623ZM762.751 377.513C761.67 376.495 760.118 374.783 759.179 373.572C757.04 370.815 755.813 369.636 754.227 368.814C753.433 368.403 753.566 368.086 754.48 368.209C755.709 368.374 757.939 369.589 758.996 370.67C759.873 371.567 761.972 374.096 763.082 375.595C763.893 376.69 765.106 379.312 764.801 379.312C764.724 379.312 763.802 378.502 762.751 377.513ZM479.172 378.288C478.8 378.211 477.294 378.144 475.824 378.139C474.326 378.133 473.009 378.052 472.826 377.954C472.425 377.74 472.399 377.07 472.779 376.756C473.138 376.458 475.526 376.523 477.043 376.873C478.138 377.125 480.101 378.055 480.101 378.322C480.101 378.483 480.116 378.484 479.172 378.288ZM767.717 377.639C765.875 375.128 763.955 367.986 762.809 359.378C762.196 354.779 762.068 353.252 761.792 347.28C761.405 338.92 761.459 338.081 762.187 341.118C762.549 342.628 762.762 344.678 763.063 349.568C763.66 359.271 765.371 368.386 768.025 376.005C768.443 377.206 768.747 378.252 768.7 378.328C768.53 378.604 768.315 378.453 767.717 377.639ZM598.859 375.263C604.882 373.724 607.493 372.978 612.796 371.28C622.253 368.253 627.549 365.966 633.825 362.197C639.39 358.855 642.35 356.225 643.544 353.564C644.179 352.146 644.227 351.41 643.751 350.375C643.187 349.149 642.467 348.509 640.678 347.639C637.92 346.3 634.762 345.36 623.945 342.661C602.473 337.302 591.34 335.255 570.056 332.754C553.549 330.814 549.782 330.224 546.62 329.086C545.309 328.615 544.995 328.216 546.264 328.635C548.486 329.368 553.021 329.969 571.028 331.915C588.674 333.822 599.662 335.674 615.621 339.434C634.605 343.907 641.256 345.958 643.506 348.032C644.237 348.707 644.963 349.962 645.213 350.981C645.658 352.802 643.607 356.442 640.873 358.687C638.366 360.746 633.768 363.618 629.773 365.621C622.468 369.284 611.016 372.944 598.062 375.757C595.905 376.225 594.042 376.602 593.923 376.594C593.804 376.586 596.025 375.987 598.859 375.263ZM807.545 376.343C807.431 376.046 808.306 373.735 808.532 373.735C808.612 373.735 808.642 373.906 808.599 374.115C808.555 374.324 808.471 374.876 808.411 375.341C808.264 376.472 807.8 377.009 807.545 376.343ZM460.983 375.281C460.952 375.201 460.003 374.901 458.873 374.613C456.576 374.027 454.218 373.169 453.92 372.81C453.771 372.631 453.772 372.485 453.922 372.204C454.095 371.881 454.214 371.848 454.876 371.938C455.291 371.995 456.314 372.271 457.149 372.551C459.136 373.217 459.243 373.214 458.876 372.51C458.531 371.848 458.499 369.509 458.811 367.82C459.214 365.647 460.318 364.093 461.45 364.109L461.941 364.116L461.5 364.355C460.58 364.855 460.074 366.266 459.898 368.818C459.757 370.867 459.901 371.904 460.41 372.509C460.625 372.765 460.83 373.122 460.865 373.302C460.913 373.554 461.278 373.731 462.448 374.071C464.146 374.564 464.836 374.885 464.62 375.081C464.413 375.27 461.051 375.454 460.983 375.281ZM470.391 374.488C469.835 374.348 469.317 374.169 469.239 374.091C469.162 374.013 469.73 373.895 470.503 373.829C471.275 373.763 472.426 373.6 473.059 373.468C474.241 373.222 476.148 373.148 476.624 373.331C477.038 373.49 476.94 373.844 476.426 374.044C474.778 374.685 471.98 374.891 470.391 374.488ZM802.439 374.518C802.278 374.324 802.29 374.058 802.495 373.265C802.943 371.537 804.223 367.469 804.846 365.792L805.443 364.186L805.452 365.116C805.466 366.703 804.58 370.96 803.658 373.735C803.332 374.718 802.858 375.023 802.439 374.518ZM798.066 374.317C797.566 373.967 797.588 373.685 798.275 371.629C798.597 370.667 799.134 368.794 799.468 367.466C799.802 366.139 800.444 363.907 800.894 362.507C801.344 361.107 802.295 358.022 803.007 355.652C805.704 346.68 809.014 337.482 809.144 338.599C809.256 339.565 808.374 343.185 806.471 349.568C806.013 351.102 805.025 354.448 804.273 357.004C803.522 359.56 802.651 362.451 802.338 363.428C802.025 364.404 801.456 366.447 801.074 367.967C800.102 371.835 799.416 373.936 799.011 374.284C798.59 374.645 798.537 374.647 798.066 374.317ZM792.536 373.671C792.391 373.45 792.196 373.013 792.101 372.7C791.867 371.92 791.721 367.236 791.902 366.299L792.049 365.538L792.606 366.972C792.913 367.761 793.282 368.94 793.427 369.592C793.768 371.131 793.802 373.416 793.489 373.794C793.165 374.183 792.844 374.142 792.536 373.671ZM772.613 373.032C771.995 368.549 770.771 354.27 770.405 347.286C770.226 343.876 768.997 326.796 768.556 321.598C768.328 318.903 768.023 314.986 767.88 312.895C767.736 310.804 767.54 308.066 767.444 306.811C767.136 302.771 766.985 296.03 767.1 291.397C767.162 288.914 767.255 286.841 767.306 286.789C767.447 286.648 767.62 289.969 767.622 292.853C767.627 298.589 768.335 310.358 769.391 322.19C769.899 327.882 770.917 341.918 771.251 347.828C771.871 358.803 772.205 364.373 772.512 368.827C772.82 373.295 772.856 374.796 772.613 373.032ZM695.431 372.935C694.409 372.594 693.041 371.385 692.779 370.592C692.518 369.8 692.674 369.691 693.191 370.306C693.717 370.931 695.295 371.771 696.45 372.039C697.395 372.259 697.779 372.565 697.623 372.972C697.494 373.308 696.5 373.291 695.431 372.935ZM469.985 370.996C469.909 370.791 469.914 370.328 469.995 369.967C470.305 368.584 471.122 367.494 472.288 366.905C472.917 366.588 472.938 366.518 472.561 365.981C471.84 364.951 467.144 357.354 467.281 357.438C467.366 357.491 468.627 359.335 470.082 361.536C471.538 363.738 472.905 365.753 473.12 366.016C473.336 366.279 473.512 366.555 473.512 366.63C473.512 366.704 473.2 367.087 472.819 367.48C472.067 368.255 471.581 369.206 471.392 370.271C471.242 371.119 471.045 371.369 470.53 371.369C470.265 371.369 470.075 371.239 469.985 370.996ZM550.727 369.073C550.735 368.877 550.775 368.836 550.829 368.971C550.878 369.093 550.872 369.239 550.816 369.295C550.76 369.351 550.72 369.251 550.727 369.073ZM692.69 368.584C691.134 367.827 690.039 366.845 689.484 365.71C689.09 364.905 689.059 364.724 689.227 364.215C689.495 363.403 689.893 363.105 690.854 362.993C692.175 362.841 692.446 362.759 692.446 362.514C692.446 362.388 691.908 361.628 691.25 360.825C689.556 358.757 688.899 357.613 688.899 356.728C688.899 355.774 689.483 355.043 690.118 355.202C690.895 355.397 695.047 360.036 694.729 360.354C694.646 360.437 692.636 358.714 691.139 357.277C690.554 356.716 690.196 356.484 690.086 356.594C689.812 356.868 690.475 357.985 692.045 359.892C693.764 361.98 694.045 362.458 693.808 362.9C693.596 363.296 692.466 363.758 691.401 363.884C690.955 363.937 690.506 364.082 690.402 364.208C689.826 364.902 691.25 366.481 693.384 367.515C694.692 368.149 694.824 368.256 694.778 368.651C694.703 369.29 694.102 369.271 692.69 368.584ZM701.853 368.53C701.459 368.095 701.144 367.111 700.725 365.01C700.524 363.999 700.242 362.754 700.098 362.243C699.547 360.287 698.492 358.824 697.468 358.599C696.828 358.459 697.169 358.193 697.996 358.19C699.347 358.183 700.699 359.415 701.522 361.402C702.095 362.787 702.944 366.325 702.961 367.402C702.981 368.62 702.436 369.174 701.853 368.53ZM462.835 364.905C462.602 364.721 462.587 364.431 462.715 362.666C463.007 358.645 463.485 356.212 464.143 355.396C464.402 355.074 464.408 355.081 464.295 355.568C464.229 355.846 464.091 357.983 463.987 360.316C463.849 363.436 463.738 364.632 463.567 364.837C463.289 365.172 463.186 365.181 462.835 364.905ZM787.623 361.839C787.457 361.407 787.852 360.526 788.745 359.337C789.51 358.318 790.863 357.035 791.003 357.195C791.034 357.229 790.473 358.322 789.756 359.624C788.773 361.41 788.365 362.003 788.088 362.044C787.876 362.075 787.68 361.989 787.623 361.839ZM782.607 360.044C782.034 359.593 781.097 357.588 780.352 355.218C779.759 353.332 779.717 353.059 779.709 351.005C779.7 348.984 779.732 348.751 780.106 348.098C780.342 347.685 780.658 347.366 780.861 347.337C781.174 347.292 781.231 347.099 781.412 345.458C781.663 343.185 781.905 342.13 782.441 340.981C782.871 340.056 784.565 338.076 784.761 338.269C784.821 338.328 784.605 339.165 784.281 340.128C783.887 341.295 783.687 341.712 783.68 341.38C783.672 341.049 783.613 340.938 783.501 341.05C783.165 341.386 782.66 343.966 782.416 346.593C782.279 348.071 782.092 349.355 782 349.446C781.749 349.698 781.32 349.462 781.133 348.971C781.033 348.709 780.89 348.581 780.774 348.653C780.641 348.735 780.609 349.298 780.671 350.479C780.745 351.905 780.888 352.579 781.535 354.554C781.962 355.855 782.578 357.477 782.905 358.159C783.541 359.483 783.648 360.122 783.257 360.272C783.124 360.323 782.831 360.221 782.607 360.044ZM71.128 357.662C70.7566 356.882 70.3373 355.792 70.1961 355.24C69.9667 354.344 69.9666 354.196 70.1956 353.846C70.3366 353.631 70.5978 353.455 70.7762 353.455C71.2338 353.455 73.048 355.185 73.4566 356.012C74.0754 357.263 73.5613 357.547 72.4672 356.558C72.0929 356.219 71.7425 355.987 71.6886 356.041C71.6348 356.094 71.6749 356.764 71.7777 357.529C71.8806 358.293 71.9284 358.955 71.884 359C71.8396 359.044 71.4994 358.442 71.128 357.662ZM76.3904 356.463C76.0753 356.148 76.1489 355.724 76.615 355.17C77.0872 354.608 78.126 354.207 79.5663 354.028L80.4954 353.913L80.1576 354.301C79.4849 355.074 77.3392 356.666 76.9706 356.666C76.763 356.666 76.5019 356.575 76.3904 356.463ZM487.196 355.868C486.129 355.565 485.842 355.096 486.376 354.527C486.848 354.024 487 354.026 486.904 354.533C486.841 354.859 486.924 354.967 487.349 355.115C488.114 355.382 487.97 356.089 487.196 355.869V355.868ZM789.201 355.808C788.523 355.412 789.181 353.655 790.608 352.053C791.088 351.514 791.437 351.03 791.383 350.976C791.329 350.922 791.006 351.043 790.666 351.244C790.325 351.445 790.009 351.573 789.964 351.528C789.919 351.483 790.67 350.937 791.632 350.316C792.595 349.694 793.66 348.968 793.998 348.701C794.604 348.224 795.156 348.067 795.156 348.371C795.156 348.762 794.811 349.257 793.114 351.299C792.115 352.501 791.025 354.003 790.693 354.635C790.361 355.267 789.969 355.831 789.822 355.887C789.502 356.01 789.563 356.018 789.201 355.808ZM786.83 353.35C786.592 353.112 786.718 352.414 787.155 351.548C788.161 349.554 791.534 344.536 791.734 344.736C791.907 344.909 791.175 346.612 789.513 349.906C788.026 352.853 787.704 353.378 787.358 353.421C787.134 353.448 786.896 353.415 786.83 353.35ZM75.9936 352.399C75.8531 352.139 75.7517 350.432 75.6743 347.02C75.5686 342.357 75.3943 340.724 75.1195 341.82C75.0635 342.043 74.9359 343.592 74.8361 345.261C74.7363 346.93 74.583 348.791 74.4954 349.397C74.4078 350.002 74.3346 350.597 74.3328 350.719C74.3312 350.84 74.2627 350.899 74.181 350.848C73.8765 350.66 73.6112 346.938 73.6923 343.991C73.7808 340.772 74.1659 338.942 74.8299 338.586C75.9258 338 76.5796 339.889 76.8798 344.511C77.1927 349.328 76.9743 352.779 76.3566 352.779C76.2702 352.779 76.1069 352.608 75.9936 352.399ZM169.202 351.063C168.88 350.604 168.874 350.619 171.182 346.22C173.604 341.604 175.643 338.449 175.376 339.731C175.131 340.909 170.88 350.496 170.321 351.131C169.969 351.531 169.51 351.504 169.202 351.063ZM490.777 350.548C490.294 350.065 490.663 349.33 492.517 347.08C492.889 346.629 493.329 346.072 493.495 345.844L493.796 345.428L493.731 346.305C493.667 347.183 492.551 349.815 491.972 350.455C491.663 350.797 491.072 350.843 490.777 350.548ZM77.4407 349.444C77.1903 347.465 77.966 343.603 79.4856 339.261C79.8267 338.286 80.2145 337.279 80.3472 337.022C80.8053 336.136 81.5935 336.584 81.5935 337.731C81.5935 338.128 81.4954 338.291 81.1841 338.409C80.8348 338.542 80.6368 338.985 79.8331 341.43C78.7418 344.751 78.0631 347.481 77.9246 349.109C77.871 349.739 77.7679 350.292 77.6956 350.336C77.6232 350.381 77.5085 349.979 77.4407 349.444ZM159.736 349.695C158.965 348.516 157.563 344.665 156.829 341.71C156.036 338.513 156.13 334.766 157.038 333.38C157.634 332.469 158.143 332.827 159.198 334.896C159.515 335.516 159.83 336.116 159.899 336.227C159.974 336.348 160.511 335.42 161.237 333.915C161.904 332.532 163.113 330.234 163.925 328.808C165.52 326.005 168.593 321.294 168.593 321.651C168.593 322.146 167.256 325.063 165.094 329.285C163.834 331.746 162.24 335.016 161.552 336.552C160.31 339.325 159.987 339.824 159.545 339.654C159.145 339.501 159.116 339.005 159.444 337.949L159.763 336.925L159.191 335.854C157.912 333.46 157.524 333.636 157.536 336.606C157.545 339.109 157.767 340.213 159.32 345.501C159.96 347.679 160.484 349.599 160.484 349.768C160.484 350.196 160.035 350.152 159.736 349.695ZM787.706 349.441C787.57 348.431 787.974 346.99 789.351 343.573C789.949 342.088 790.529 340.396 790.64 339.813C790.751 339.229 790.9 338.752 790.972 338.752C791.043 338.752 791.101 339.265 791.101 339.893C791.101 340.781 790.955 341.446 790.449 342.893C788.598 348.174 787.794 350.094 787.706 349.441ZM485.675 348.906C485.536 348.827 484.782 348.601 484 348.405C481.848 347.866 481.196 347.273 482.322 346.881C483.068 346.621 483.817 346.644 483.817 346.927C483.817 347.079 484.122 347.199 484.704 347.276C485.77 347.417 486.992 347.93 487.132 348.294C487.358 348.884 486.366 349.3 485.675 348.906ZM80.6221 347.867C80.3437 347.759 80.242 347.583 80.242 347.206C80.242 346.802 80.4901 346.433 81.4097 345.469C82.0519 344.795 82.6241 344.291 82.6814 344.348C82.7386 344.405 82.5349 345.157 82.2287 346.019C81.6316 347.701 81.2689 348.118 80.6221 347.867ZM480.913 343.475C477.745 343.193 475.859 342.269 476.397 341.263C476.581 340.919 476.674 340.906 478.219 341.004C479.115 341.061 480.532 341.294 481.368 341.522C482.204 341.749 483.202 341.985 483.587 342.045C484.297 342.157 485 342.649 485 343.034C485 343.67 484.142 343.763 480.913 343.475ZM489.512 343.21C489.278 342.976 489.398 342.308 489.814 341.524C490.311 340.591 490.334 340.323 489.957 339.906C489.719 339.643 489.715 339.597 489.931 339.597C490.07 339.597 490.329 339.757 490.506 339.954C490.896 340.386 490.924 341.961 490.555 342.734C490.329 343.208 489.766 343.464 489.512 343.21ZM482.134 339.179C481.823 338.95 480.991 338.522 480.286 338.229C478.529 337.5 478.074 337.154 478.074 336.55C478.074 335.803 478.484 335.684 480.866 335.743C483.204 335.8 483.548 335.999 482.128 336.471C481.663 336.625 481.283 336.779 481.283 336.812C481.283 336.846 481.747 337.121 482.315 337.423C483.567 338.091 483.948 338.583 483.676 339.181C483.43 339.722 482.869 339.721 482.134 339.181V339.179ZM172.141 336.64C171.955 336.416 172.005 336.095 172.452 334.647C172.745 333.698 173.07 332.509 173.174 332.006C173.51 330.378 173.09 328.712 172.238 328.298L171.887 328.128L172.234 328.116C172.702 328.101 173.572 329.052 173.831 329.863C174.155 330.877 173.949 333.302 173.378 335.201C172.884 336.845 172.592 337.184 172.141 336.64ZM22.6948 334.773C22.4906 334.24 22.7872 332.938 23.582 330.878C24.171 329.35 24.4323 328.845 24.5194 329.066C24.8768 329.973 24.4022 333.708 23.8269 334.516C23.4323 335.071 22.8589 335.2 22.6948 334.773ZM16.5633 333.325C14.6389 332.186 12.6698 330.429 12.6698 329.851C12.6698 329.18 13.0373 329.101 14.0243 329.558C14.6632 329.855 14.8721 330.025 14.7155 330.122C14.4598 330.28 15.2348 330.853 17.0841 331.874C18.2961 332.544 19.3084 333.547 19.2236 333.994C19.1134 334.576 18.3531 334.385 16.5633 333.325ZM14.6695 328.324C14.5253 328.157 13.9813 327.367 13.4605 326.568C12.9397 325.769 11.9722 324.476 11.3104 323.695C9.82233 321.938 9.55456 321.462 9.79879 321.006C10.0802 320.48 10.5075 320.505 11.7406 321.121C12.2052 321.353 12.9083 321.807 13.3032 322.131C13.6981 322.455 14.0212 322.647 14.0212 322.558C14.0212 321.909 11.3888 316.795 9.67035 314.107C8.85274 312.828 8.61344 312.201 8.80572 311.841C9.13266 311.23 9.68992 311.53 11.8411 313.473C14.1653 315.573 15.3428 317.008 16.3962 319.024C16.9487 320.082 17.9066 322.395 17.9066 322.672C17.9066 322.706 17.1565 321.678 16.2396 320.387C14.6474 318.146 12.8732 316.015 12.724 316.164C12.6855 316.203 12.9201 316.719 13.2454 317.311C14.4577 319.518 17.3999 326.888 17.3999 327.718C17.3999 328.308 16.8846 327.776 16.0054 326.277C15.2823 325.044 14.834 324.479 14.2553 324.071C13.8274 323.77 13.4515 323.549 13.4199 323.58C13.3883 323.612 13.6817 324.097 14.0719 324.658C15.6273 326.896 16.1086 328.458 15.2789 328.577C15.0879 328.605 14.8137 328.49 14.6695 328.324ZM21.8258 327.902C21.5195 327.596 21.5763 327.025 22.1076 325.071C22.3741 324.091 22.7285 322.528 22.8952 321.599C23.0619 320.669 23.2508 319.847 23.315 319.773C23.573 319.473 24.0551 321.791 24.0638 323.373C24.0734 325.122 23.6317 327.423 23.2045 327.851C22.9 328.156 22.1085 328.185 21.8258 327.902ZM732.696 325.145C731.837 324.915 730.355 324.397 729.402 323.993C728.449 323.59 727.212 323.08 726.655 322.861C724.611 322.057 724.869 321.66 727.215 322C728.002 322.114 729.338 322.425 730.184 322.693C731.03 322.96 732.369 323.345 733.159 323.549C734.913 324.001 735.906 324.583 735.83 325.115C735.786 325.427 735.657 325.492 735.017 325.524C734.599 325.545 733.554 325.374 732.696 325.145ZM733.399 322.787C730.934 321.974 727.834 320.782 726.486 320.129C725.256 319.533 724.416 318.836 723.615 317.749C723.122 317.08 723.147 316.711 723.656 317.158C723.819 317.301 724.291 317.589 724.704 317.797C725.533 318.214 725.843 318.328 730.653 319.985C732.481 320.614 734.221 321.272 734.521 321.448C735.543 322.047 735.948 323.005 735.286 323.259C735.17 323.304 734.32 323.092 733.399 322.787ZM20.1365 321.48C19.8339 321.177 19.8932 319.752 20.2759 318.134C20.7336 316.198 20.7634 316.123 20.944 316.445C21.1344 316.784 21.4542 319.129 21.4542 320.185C21.4542 320.649 21.3755 321.176 21.2793 321.356C21.0838 321.722 20.4469 321.791 20.1365 321.48ZM802.638 320.542C802.427 320.051 802.335 318.943 802.226 315.599C802.081 311.155 801.84 309.146 801.244 307.418C800.859 306.301 800.834 306.135 801.051 306.135C801.233 306.135 802.291 308.764 802.571 309.911C803.145 312.264 803.68 319.496 803.371 320.726C803.214 321.352 802.958 321.288 802.638 320.542ZM800.157 319.783C799.484 318.577 799.269 317.258 799.731 317.162C800.244 317.055 801.383 320.455 800.928 320.736C800.828 320.798 800.493 320.383 800.157 319.783ZM729.162 317.161C727.865 316.153 727.124 315.718 725.05 314.748C721.856 313.254 720.489 312.222 720.489 311.306C720.489 310.612 721.562 309.894 723.165 309.517L724.068 309.305L723.311 308.523C722.895 308.092 722.47 307.574 722.367 307.371C722.125 306.898 722.125 306.043 722.366 305.592C722.521 305.304 722.498 305.209 722.242 305.065C721.373 304.579 720.31 303.352 720.077 302.567C719.483 300.569 721.14 298.557 723.868 297.965C724.471 297.834 725.108 297.667 725.281 297.596C725.962 297.313 725.216 298.166 723.912 299.16C722.523 300.22 721.84 301.043 721.84 301.659C721.84 302.243 722.367 302.776 723.751 303.592C724.877 304.257 725.388 304.787 725.388 305.292C725.388 305.377 725.149 305.72 724.857 306.052L724.326 306.657L724.803 307.155C725.065 307.429 725.969 308.006 726.812 308.438C728.342 309.221 728.935 309.62 728.935 309.867C728.935 310.501 727.582 310.716 726.202 310.3C725.484 310.084 725.375 310.098 724.191 310.565C723.502 310.837 722.834 311.161 722.706 311.286C722.432 311.553 722.481 311.582 725.866 313.172C728.399 314.361 729.401 314.963 730.426 315.91C731.172 316.599 731.306 317.091 730.866 317.53C730.457 317.94 730.051 317.852 729.162 317.161ZM17.5013 316.402C17.3512 316.168 17.1523 314.947 16.9851 313.233C16.5884 309.166 16.4904 308.738 16.3863 310.614L16.3018 312.135L15.9239 310.983C15.4243 309.461 15.0681 306.08 15.3691 305.717C15.4867 305.575 15.6818 305.459 15.8025 305.459C16.2358 305.459 17.1943 306.829 17.553 307.961C18.26 310.192 18.8292 315.667 18.4314 316.411C18.1763 316.887 17.8109 316.884 17.5013 316.402ZM771.929 310.67C771.675 309.988 771.48 308.364 771.255 305.037C770.78 298.043 770.502 294.908 770.049 291.432C769.825 289.711 769.674 288.981 769.21 287.376L769.088 286.954L769.465 287.287C770.079 287.83 770.933 289.559 771.304 291.01C771.72 292.637 772.242 296.721 772.621 301.319C772.903 304.747 772.876 309.234 772.566 310.264C772.402 310.808 772.061 311.025 771.929 310.67ZM807.258 301.869C807.093 297.848 806.945 292.735 806.928 290.505L806.897 286.452L806.291 286.354C805.388 286.207 804.71 285.633 804.259 284.635C803.881 283.796 803.857 283.56 803.87 280.701C803.89 276.196 804.436 273.509 805.635 272.016C805.942 271.634 806.219 271.347 806.251 271.379C806.284 271.411 806.199 271.75 806.064 272.133C805.677 273.231 805.487 275.026 805.362 278.757C805.282 281.176 805.307 282.508 805.445 283.169C805.646 284.127 806.172 284.914 806.532 284.794C806.666 284.75 806.789 283.46 806.921 280.718C807.248 273.927 807.499 273.26 807.832 278.298C808.103 282.406 808.178 283.151 808.322 283.151C808.394 283.151 808.771 282.467 809.159 281.63C809.825 280.196 810.051 279.914 810.26 280.253C810.401 280.481 810.045 282.401 809.683 283.368C809.502 283.853 809.105 284.551 808.801 284.92L808.248 285.59L808.3 290.243C808.328 292.803 808.272 296.57 808.175 298.615C808.078 300.659 807.95 303.777 807.89 305.544C807.83 307.31 807.731 308.85 807.669 308.967C807.608 309.084 807.423 305.89 807.258 301.869ZM481.82 291.114C487.38 288.829 489.941 287.075 490.833 284.94C491.134 284.219 490.969 283.408 490.421 282.912C489.998 282.529 486.633 281.697 483.52 281.206C477.636 280.278 474.101 279.975 464.644 279.587C458.761 279.346 410.256 279.355 402.562 279.599C399.635 279.692 394.009 279.843 390.061 279.935C381.501 280.134 379.806 280.193 370.465 280.625C350.233 281.561 343.582 281.917 335.918 282.478C333.41 282.661 328.697 283.003 325.445 283.237C322.193 283.471 317.442 283.85 314.887 284.079C312.332 284.308 306.665 284.762 302.294 285.088C297.923 285.414 291.537 285.949 288.104 286.277C284.67 286.606 280.264 286.987 278.313 287.124C276.362 287.262 272.603 287.641 269.961 287.966C267.318 288.291 263.517 288.673 261.514 288.816C259.511 288.959 255.364 289.301 252.298 289.576C241.518 290.545 229.067 290.953 225.86 290.443C223.121 290.007 221.459 289.33 221.211 288.546C221.151 288.358 221.19 288.099 221.298 287.969C221.518 287.703 223.556 287.014 226.753 286.123C229.174 285.449 231.299 284.617 231.634 284.212C231.837 283.968 231.599 283.955 228.985 284.064C227.406 284.131 225.049 284.289 223.749 284.416C222.448 284.543 219.521 284.769 217.245 284.917C203.363 285.82 196.891 286.454 183.543 288.222C178.025 288.952 172.429 289.535 165.721 290.078C163.352 290.269 160.235 290.536 158.795 290.67C152.485 291.26 140.725 291.688 137.425 291.45C135.043 291.278 132.878 290.911 132.247 290.573C131.824 290.347 131.957 290.161 132.385 290.38C132.806 290.596 135.302 290.894 137.763 291.022C139.696 291.124 145.092 290.953 151.869 290.576C155.236 290.389 171.641 288.932 176.617 288.379C178.289 288.193 181.52 287.781 183.796 287.465C189.037 286.735 199.916 285.438 203.561 285.107C206.262 284.862 209.488 284.622 217.414 284.077C219.504 283.933 222.317 283.701 223.664 283.563C227.11 283.208 233.205 283.04 233.362 283.295C233.582 283.651 233.299 284.104 232.489 284.688C231.171 285.638 229.642 286.263 226.536 287.12C222.892 288.124 222.482 288.262 222.482 288.484C222.482 288.936 224.701 289.448 227.892 289.733C231.07 290.016 242.603 289.524 251.538 288.724C254.557 288.453 258.7 288.113 260.744 287.968C262.788 287.823 266.969 287.404 270.036 287.037C273.102 286.67 276.827 286.289 278.313 286.189C279.8 286.09 284.171 285.71 288.027 285.345C291.882 284.981 298.116 284.451 301.879 284.168C305.642 283.885 311.761 283.391 315.478 283.071C319.194 282.751 323.413 282.407 324.854 282.306C326.294 282.205 329.943 281.937 332.962 281.711C345.371 280.781 371.833 279.44 384.486 279.1C387.97 279.007 395.23 278.808 400.619 278.66C414.005 278.291 462.714 278.395 469.965 278.809C478.926 279.32 488.258 280.693 490.566 281.84C492.065 282.584 492.466 284.313 491.515 285.935C490.799 287.157 488.735 288.957 487.171 289.724C485.771 290.41 482.239 291.517 480.888 291.693C480.322 291.767 480.504 291.655 481.82 291.114ZM616.932 272.842C618.107 271.175 620.438 269.428 622.798 268.444C625.533 267.303 630.25 266.372 634.588 266.117C636.481 266.005 636.612 265.975 636.577 265.66C636.344 263.596 636.169 259.842 636.227 258.145C636.29 256.274 636.35 255.927 636.739 255.171C637.6 253.499 638.724 252.78 643.144 251.069C646.774 249.665 648.978 249.099 652.748 248.606C653.803 248.468 653.262 248.755 651.988 249.01C649.733 249.461 642.258 252.132 639.885 253.335C638.735 253.918 637.72 254.875 637.337 255.737C637.042 256.403 637.019 256.866 637.051 261.399L637.087 266.336L635.5 266.466C632.331 266.728 629.489 267.112 627.582 267.537C622.785 268.607 620.085 269.883 617.79 272.166C617.067 272.885 616.696 273.177 616.932 272.842ZM530.78 271.36C530.362 271.219 529.868 271.04 529.682 270.963C526.451 269.628 525.077 268.988 523.778 268.213C522.919 267.7 521.823 267.126 521.343 266.936C519.035 266.026 517.494 264.877 516.651 263.438C516.272 262.791 516.185 262.734 515.694 262.813C515.397 262.861 512.569 262.703 509.41 262.462C494.212 261.305 473.684 260.166 460.42 259.746C442.416 259.175 434.31 259.074 406.531 259.071C372.426 259.066 362.15 259.277 328.063 260.668C315.162 261.195 312.479 261.297 307.96 261.437C306.427 261.485 301.144 261.672 296.22 261.853C291.295 262.035 284.606 262.279 281.354 262.397C277.978 262.519 269.425 262.612 261.42 262.614C246.823 262.619 246.085 262.593 236.081 261.759C226.172 260.934 218.517 259.616 211.038 257.448L209.307 256.947L204.112 257.121C191.007 257.562 180.118 258.224 153.896 260.174C122.939 262.476 117.949 262.82 101.443 263.796C94.7513 264.192 85.7559 264.551 80.4954 264.633C76.3476 264.698 76.1085 264.689 78.5527 264.558C80.0858 264.477 84.3428 264.288 88.0128 264.139C100.457 263.636 117.943 262.447 140.212 260.591C175.124 257.681 191.072 256.584 205.082 256.129L209.389 255.989L211.332 256.545C220.375 259.134 227.752 260.218 242.331 261.099C253.701 261.786 265.92 261.604 298.331 260.262C303.86 260.033 310.587 259.764 313.282 259.664C315.976 259.564 323.16 259.258 329.246 258.983C360.812 257.558 379.157 257.128 408.39 257.126C449.602 257.126 478.794 258.125 509.41 260.589C512.29 260.821 514.894 261.011 515.196 261.011H515.745V260.099C515.745 258.041 517.013 255.576 519.261 253.261C520.555 251.93 521.896 251.02 523.397 250.456C524.31 250.112 524.454 249.997 524.549 249.534C524.698 248.804 525.376 247.875 526.654 246.646C527.251 246.073 527.739 245.579 527.739 245.549C527.739 245.518 527.416 245.441 527.021 245.378C525.727 245.172 524.87 244.92 524.961 244.772C525.191 244.399 527.299 243.954 529.059 243.907C531.041 243.854 531.456 243.989 531.456 244.69C531.456 245.229 531.134 245.463 530.396 245.463C529.948 245.463 529.514 245.621 529.015 245.964C527.894 246.735 526.261 248.622 525.706 249.786C525.222 250.799 525.166 250.851 524.076 251.288C522.534 251.905 521.421 252.676 520.107 254.039C517.489 256.751 516.576 259.255 517.364 261.566C517.612 262.294 519.101 264.179 518.883 263.488C518.496 262.264 518.536 262.245 519.506 263.194C520.459 264.127 523.384 266.081 523.828 266.081C523.963 266.081 524.841 266.342 525.779 266.661C526.718 266.98 527.638 267.275 527.824 267.317C528.079 267.375 528.05 267.399 527.707 267.414C527.457 267.424 527.207 267.507 527.151 267.597C527.05 267.76 527.921 268.195 528.743 268.391L529.175 268.495L528.753 268.021C528.265 267.474 528.497 267.583 529.682 268.458C530.146 268.801 530.793 269.167 531.118 269.272C532.23 269.629 532.807 270.088 532.807 270.616C532.807 271.166 532.345 271.668 531.865 271.638C531.686 271.627 531.198 271.501 530.78 271.36V271.36ZM533.937 269.166C534.092 268.143 534.778 266.302 535.52 264.918C536.93 262.293 538.975 260.031 541.331 258.492C543.324 257.19 545.092 256.722 548.776 256.517C550.852 256.401 550.951 256.379 551.508 255.89C552.695 254.847 553.129 253.351 553.418 249.299C553.523 247.83 553.72 246.195 553.856 245.666C554.413 243.494 555.496 242.07 557.277 241.167C558.338 240.629 560.864 239.887 561.634 239.887C562.54 239.887 563.142 239.546 565.495 237.7C572.173 232.46 577.231 230.009 583.317 229.064C588.459 228.266 593.304 229.083 596.106 231.221L596.647 231.634L597.16 230.501C597.982 228.687 600.962 226.031 603.589 224.77C607.285 222.996 612.19 222.625 614.755 223.925C615.65 224.378 617.417 225.935 617.241 226.115C617.177 226.18 616.721 226.042 616.227 225.809C615.003 225.232 614.221 225.042 612.534 224.912C608.961 224.638 605.1 225.601 602.406 227.438C600.14 228.983 597.339 231.513 597.339 232.013C597.339 232.078 597.757 232.649 598.268 233.282C598.779 233.914 599.197 234.525 599.197 234.638C599.197 234.751 598.785 234.477 598.281 234.027C597.199 233.063 595.489 232.017 593.96 231.386C589.91 229.713 584.359 229.769 578.943 231.537C575.04 232.812 570.862 235.228 566.437 238.77C563.935 240.774 563.261 241.18 562.174 241.335C561.044 241.497 558.982 242.086 558.231 242.461C555.897 243.628 555.351 244.81 554.854 249.774C554.384 254.47 553.638 256.332 551.76 257.495C551.297 257.781 550.761 257.865 548.635 257.985C544.036 258.244 542.254 258.987 539.371 261.846C537.623 263.58 535.831 266.125 534.699 268.48C534.355 269.195 534.022 269.784 533.958 269.79C533.894 269.796 533.885 269.515 533.937 269.166ZM528.584 240.681L527.148 239.972L528.141 239.92C528.687 239.892 529.361 239.948 529.638 240.045C529.916 240.142 530.203 240.184 530.276 240.138C530.35 240.093 530.294 239.619 530.153 239.084C529.958 238.35 529.921 237.651 530 236.222C530.173 233.097 530.715 231.04 532.131 228.142C533.805 224.714 535.344 222.912 538.53 220.646C541.003 218.887 542.161 218.378 543.895 218.287C544.677 218.246 545.518 218.295 545.819 218.4C546.212 218.537 546.656 218.535 547.494 218.391C549.066 218.121 552.238 218.586 552.233 219.085C552.233 219.14 551.28 219.198 550.118 219.215C548.955 219.232 547.72 219.339 547.374 219.454C547.027 219.569 545.946 219.67 544.97 219.679C542.732 219.7 542.076 219.973 539.384 221.997C536.305 224.313 534.86 226.107 533.403 229.421C532.423 231.651 531.981 233.443 531.7 236.324C531.559 237.772 531.35 239.49 531.236 240.141C531.035 241.282 531.01 241.325 530.524 241.357C530.218 241.377 529.454 241.11 528.584 240.681ZM411.937 237.521C403.762 229.739 392.593 217.874 383.46 207.27C370.455 192.17 357.79 175.655 329.609 137.051C313.892 115.52 309.558 109.842 296.91 94.2091C284.165 78.4553 274.683 67.7691 262.518 55.4466C253.57 46.3829 246.699 40.1248 240.979 35.8312C232.026 29.1094 225.714 26.5906 215.756 25.7653C213.053 25.5413 202.613 25.5406 196.381 25.7642C176.234 26.4866 157.128 28.1364 128.725 31.6067C122.268 32.3956 111.739 33.6821 105.328 34.4654C94.9919 35.7283 79.3253 37.5753 72.2664 38.3632C70.8994 38.5158 69.6891 38.61 69.5769 38.5726C69.4647 38.5351 70.4311 38.3697 71.7245 38.205C81.0038 37.0228 91.6615 35.5725 105.495 33.6095C137.432 29.0773 145.816 28.0408 166.143 26.1115C179.442 24.8493 195.699 24.0239 207.278 24.023C215.637 24.0225 218.841 24.2861 223.664 25.3723C235.636 28.0681 247.873 37.4966 270.892 61.761C281.342 72.7772 289.439 82.2386 304.009 100.462C312.229 110.744 316.872 116.874 328.904 133.333C361.61 178.074 373.915 194.02 390.977 213.777C399.327 223.444 406.056 230.84 412.001 236.882C414.359 239.279 416.183 241.235 416.055 241.229C415.927 241.224 414.074 239.555 411.937 237.521ZM431.682 237.446C431.543 237.082 432.179 233.171 433.307 227.466C435.318 217.289 435.59 214.997 435.579 208.369C435.572 204.005 435.529 203.254 435.193 201.524C434.148 196.156 432.329 191.575 429.601 187.438C428.935 186.429 428.42 185.518 428.455 185.414C428.552 185.12 430.389 187.699 431.623 189.863C434.302 194.559 435.978 199.901 436.524 205.481C436.893 209.256 436.535 215.948 435.682 221.186C435.136 224.542 432.564 237.219 432.364 237.543C432.22 237.776 431.785 237.714 431.682 237.446ZM608.91 233.695C611.374 232.077 613.089 231.511 616.09 231.325C617.282 231.251 617.966 231.295 618.75 231.497C619.863 231.783 621.158 232.369 621.158 232.587C621.158 232.658 620.399 232.686 619.471 232.649C617.787 232.581 614.561 232.833 612.965 233.157C612.5 233.251 611.255 233.587 610.198 233.904C609.141 234.22 608.153 234.477 608.002 234.475C607.851 234.473 608.26 234.122 608.91 233.695ZM553.322 219.705C553.048 219.505 553.002 219.291 553.039 218.411C553.133 216.202 554.124 213.217 555.897 209.805C558.087 205.591 560.43 202.492 563.5 199.75C566.319 197.233 567.419 196.607 569.44 196.372C570.396 196.261 570.58 196.174 571.226 195.528C571.681 195.073 572.313 194.672 572.944 194.437C573.493 194.233 574.208 193.814 574.533 193.507C576.239 191.894 580.96 188.68 583.824 187.181C586.571 185.743 590.921 183.888 593.791 182.929C597.803 181.59 601.318 181.393 603.284 182.399C603.769 182.647 604.188 182.926 604.215 183.019C604.247 183.127 603.425 183.167 601.902 183.129C597.838 183.029 595.582 183.536 590.284 185.744C584.262 188.252 579.121 191.363 575.593 194.634C575.015 195.17 574.445 195.61 574.326 195.611C573.791 195.615 572.354 196.457 572.075 196.93C571.691 197.58 571.313 197.745 569.873 197.892C567.858 198.097 566.917 198.693 563.745 201.77C561.559 203.89 559.909 206.065 558.228 209.045C556.231 212.585 555.066 215.688 554.834 218.093C554.672 219.765 554.156 220.315 553.322 219.705ZM250.274 176.864C248.729 175.199 247.323 173.735 247.151 173.611C246.978 173.487 245.595 172.206 244.077 170.764C241.306 168.132 233.111 160.802 228.225 156.585C226.785 155.342 224.39 153.212 222.904 151.853C221.417 150.493 219.137 148.426 217.836 147.26C215.222 144.918 205.747 136.987 201.788 133.828C198.985 131.591 190.982 125.734 184.726 121.339C179.471 117.648 171.831 112.09 163.694 106.039C150.468 96.2033 144.301 92.213 139.621 90.4611C137.673 89.7321 137.962 89.6154 140.151 90.247C143.223 91.1334 146.073 92.71 153.22 97.4781C158.06 100.707 159.09 101.435 167.157 107.325C173.758 112.145 181.238 117.507 185.401 120.403C196.812 128.34 202.158 132.406 211.756 140.452C216.757 144.644 218.492 146.181 224.437 151.684C226.102 153.225 228.263 155.195 229.239 156.062C237.572 163.46 247.31 172.968 251.181 177.484C252.316 178.808 253.209 179.892 253.165 179.892C253.121 179.892 251.82 178.53 250.274 176.864ZM404.823 173.103C402.511 171.228 395.108 165.281 388.371 159.888C381.635 154.495 372.969 147.49 369.113 144.323C351.919 130.197 345.955 125.428 338.115 119.537C329.547 113.1 319.325 106.132 313.833 102.985C311.951 101.907 312.217 101.79 314.169 102.838C318.27 105.04 321.56 107.007 327.763 110.969C329.781 112.258 331.549 113.358 331.691 113.412C331.998 113.53 331.998 113.637 331.694 111.532C331.559 110.602 331.36 107.674 331.25 105.025C331.049 100.181 331.096 97.6276 331.629 84.7547C331.87 78.9077 332.084 78.747 332.542 84.0691C332.818 87.2804 333.288 89.9895 333.713 90.8106C333.861 91.0963 334.216 91.5025 334.503 91.7133C335.306 92.3024 337.208 94.8562 337.645 95.9313C337.929 96.6318 338.086 97.5092 338.221 99.1607C338.441 101.857 338.306 102.511 337.106 104.553C335.744 106.872 334.756 107.622 333.895 106.992C333.329 106.578 333.501 105.851 334.429 104.735C334.895 104.175 335.571 103.232 335.93 102.64C336.583 101.565 336.585 101.558 336.65 99.4403C336.689 98.2123 336.634 96.9218 336.521 96.3777C336.288 95.2511 335.258 93.7082 333.834 92.3501C333.069 91.6196 332.811 91.2396 332.633 90.5756C332.26 89.1901 332.082 89.2588 332.193 90.7446C332.448 94.1335 332.66 100.956 332.707 107.28L332.758 114.182L333.916 114.955C338.354 117.921 348.661 125.518 353.986 129.75C355.004 130.558 355.978 131.22 356.15 131.22C356.323 131.22 356.419 131.293 356.364 131.381C356.309 131.47 357.996 132.931 360.113 134.627C368.375 141.251 381.744 152.341 389.301 158.838C397.947 166.272 409.319 176.223 409.319 176.355C409.319 176.441 409.253 176.512 409.173 176.512C409.092 176.512 407.135 174.978 404.823 173.103ZM411.623 173.015C411.42 172.812 411.516 172.653 412.789 171.076C415.535 167.678 420.233 162.984 424.185 159.692C425.16 158.879 425.988 158.189 426.024 158.158C426.06 158.127 425.603 157.893 425.01 157.638C424.417 157.384 423.437 156.915 422.833 156.598C421.372 155.829 416.227 153.48 412.729 151.986C411.179 151.324 409.255 150.453 408.455 150.052C407.655 149.651 406.21 148.97 405.245 148.539C404.28 148.107 401.4 146.742 398.845 145.504C393.877 143.096 385.419 139.569 380.178 137.717C374.559 135.732 364.486 132.436 362.402 131.901C361.295 131.617 359.711 131.281 358.881 131.156C356.996 130.87 357.36 130.617 359.426 130.776C362.44 131.007 367.255 132.341 377.145 135.684C384.699 138.237 394.11 142.015 399.267 144.564C401.312 145.574 404.2 146.949 405.687 147.618C407.173 148.288 408.884 149.084 409.488 149.388C410.092 149.692 412.22 150.637 414.218 151.489C416.215 152.341 419.832 154.022 422.256 155.226C424.679 156.43 426.722 157.415 426.795 157.415C426.869 157.415 427.813 156.745 428.893 155.926C429.974 155.107 432.036 153.582 433.476 152.537C434.916 151.493 436.626 150.225 437.277 149.72C442.105 145.967 451.751 139.88 461.096 134.69C472.19 128.527 481.492 124.248 494.722 119.221C502.531 116.254 508.592 114.349 513.802 113.224C515.382 112.883 517.624 112.296 518.786 111.919C521.082 111.175 529.786 107.875 532.638 106.668C537.63 104.556 557.471 95.1241 557.471 94.864C557.471 94.7904 556.388 94.199 555.064 93.5498C545.855 89.0347 536.48 82.1461 524.107 70.8034C522.209 69.0628 521.009 68.1528 518.026 66.1885C510.913 61.5057 508.423 60.1238 501.893 57.2349C494.617 54.0161 490.041 52.6038 483.466 51.5485C478.967 50.8265 477.218 50.7193 471.739 50.8296C459.859 51.0687 449.227 52.346 433.476 55.4264C420.202 58.0223 419.325 58.1672 413.12 58.7925C404.421 59.669 397.14 59.9358 392.248 59.5572C388.847 59.294 383.167 58.5993 379.882 58.045C376.169 57.4183 372.92 56.7311 364.305 54.7505C355.981 52.8368 348.056 51.0306 337.608 48.6657C326.874 46.2361 323.433 45.406 311.592 42.3907C286.787 36.0734 278.5 33.71 253.987 25.9621C240.798 21.7931 233.562 19.6348 225.185 17.3712C215.885 14.8578 212.085 13.994 203.815 12.5128C189.902 10.021 180.139 8.69626 165.721 7.34377C151.922 6.04938 142.028 5.05161 132.273 3.97059C118.33 2.42559 118.326 2.42524 114.074 2.38895L110.396 2.35755L103.132 3.662C99.1369 4.37944 94.3477 5.20075 92.4895 5.48712C87.828 6.2055 82.4675 6.97834 80.8407 7.16654C80.0933 7.253 77.7334 7.553 75.5964 7.8332C58.2659 10.1056 47.5501 10.5482 34.4618 9.53243C29.5857 9.15399 19.5935 7.81052 18.16 7.34064C17.5532 7.14171 17.4174 7.12822 22.2988 7.75181C31.0889 8.87471 40.8371 9.26854 49.7501 8.86084C57.5698 8.50314 62.8974 8.00052 72.3023 6.7332C75.4148 6.31378 79.1017 5.82404 80.4954 5.6449C86.4466 4.87993 98.2055 2.94921 106.849 1.31791C110.179 0.689355 110.282 0.680593 114.078 0.705636C118.316 0.733627 118.449 0.744084 129.823 1.95059C142.568 3.30242 145.096 3.55323 156.852 4.63226C176.213 6.40929 181.915 7.05086 192.159 8.60523C197.811 9.46295 207.586 11.157 211.332 11.9282C220.789 13.875 234.706 17.7709 255.845 24.3888C281.17 32.3171 288.863 34.4707 316.829 41.4614C327.201 44.0539 328.792 44.4241 354.332 50.1854C357.77 50.9609 363.091 52.1678 366.157 52.8674C384.203 56.9849 392.797 57.9229 405.02 57.1089C410.929 56.7153 418.095 55.9358 421.228 55.3456C423.323 54.9511 430.595 53.5452 434.827 52.7166C449.598 49.8247 462.141 48.413 473.428 48.372C478.083 48.3551 480.145 48.5112 484.24 49.1908C490.961 50.3065 495.586 51.7725 503.281 55.2271C510.063 58.2717 512.439 59.6987 519.339 64.8679C524.248 68.546 525.792 69.9176 529.278 73.6993C531.874 76.5161 532.314 76.9093 535.873 79.5906C542.766 84.7846 550.249 89.7026 556.616 93.2231L558.718 94.3851L560.924 93.3786C562.137 92.8251 564.917 91.5241 567.1 90.4877C582.218 83.3115 596.287 77.6478 618.708 69.7129C635.074 63.9212 654.859 57.6103 668.205 53.9252C689.676 47.9966 711.647 43.5682 731.63 41.1414C734.654 40.7741 740.283 40.1664 744.139 39.791C747.995 39.4155 751.834 39.0357 752.67 38.9469C758.115 38.369 778.272 37.4415 791.609 37.1553C797.962 37.019 798.341 37.2935 792.2 37.5829C785.998 37.8751 775.222 38.5536 769.141 39.0347C762.63 39.5499 752.624 40.4393 752.163 40.5437C751.978 40.5859 748.633 40.9683 744.73 41.3937C729.611 43.0417 720.754 44.3114 708.664 46.5641C697.737 48.6 691.997 49.8383 681.804 52.3587C671.631 54.8741 665.437 56.582 655.311 59.6637C639.9 64.3536 630.921 67.287 617.441 72.0351C596.303 79.4808 582.309 85.0877 567.353 92.1032C565.031 93.1928 562.332 94.445 561.356 94.8858C560.381 95.3267 557.074 96.8832 554.008 98.3449C538.057 105.949 534.115 107.683 525.97 110.677C518.988 113.244 517.569 113.665 512.873 114.567C508.909 115.328 502.811 117.229 495.389 120.018C481.048 125.407 470.556 130.243 457.971 137.265C452.262 140.45 449.215 142.305 444.46 145.488C438.338 149.587 427.732 157.458 427.732 157.904C427.732 157.986 427.922 158.177 428.155 158.329C428.825 158.768 428.646 158.939 427.813 158.655C426.862 158.331 427.096 158.185 423.509 161.341C420.665 163.844 416.575 167.922 413.718 171.104C412.049 172.964 411.799 173.191 411.623 173.015ZM666.6 166.982C666.6 166.868 671.306 164.269 673.442 163.203C674.557 162.646 676.457 161.771 677.665 161.257C682.62 159.151 683.224 158.8 685.436 156.732C690.533 151.967 692.585 150.646 701.694 146.27C704.552 144.898 709.057 142.728 711.705 141.45C716.52 139.124 722.551 136.363 724.459 135.609C725.016 135.389 727.183 134.494 729.273 133.622C731.364 132.749 734.823 131.309 736.96 130.422C741.768 128.425 747.711 125.809 755.204 122.392C768.423 116.364 774.321 114.098 784.148 111.274C786.13 110.704 788.241 110.054 788.84 109.829C789.967 109.404 790.755 109.269 790.257 109.585C789.992 109.753 789.71 109.866 778.094 114.416C769.653 117.723 764.022 120.112 755.12 124.165C746.174 128.237 743.368 129.452 731.807 134.261C720.618 138.916 719.002 139.631 710.775 143.563C707.616 145.073 703.359 147.098 701.315 148.063C694.607 151.229 692.22 152.672 688.646 155.719C684.537 159.222 684.04 159.591 683.048 159.879C682.534 160.029 681.53 160.418 680.818 160.743C680.106 161.069 678.611 161.7 677.496 162.147C675.308 163.023 672.321 164.378 668.965 166.016C666.973 166.988 666.6 167.14 666.6 166.982ZM505.904 163.646C507.199 161.939 509.195 159.249 510.338 157.669C511.482 156.088 512.991 154.111 513.693 153.275C517.543 148.681 523.695 142.532 531.844 135.134C534.233 132.964 536.283 131.06 536.398 130.901C536.624 130.591 541.849 125.643 544.469 123.258C548.26 119.807 554.791 114.625 558.231 112.339C559.487 111.504 575.874 101.26 583.824 96.3387C584.985 95.6198 586.772 94.6285 587.794 94.1358C589.556 93.2862 591.693 92.5609 591.881 92.7485C591.928 92.796 591.506 93.0678 590.942 93.3523C590.379 93.6369 588.794 94.5799 587.42 95.4479C586.046 96.3158 582.338 98.6614 579.179 100.66C556.943 114.73 558.488 113.715 554.008 117.203C549.196 120.95 545.243 124.47 538.644 130.882C536.779 132.695 533.543 135.732 531.454 137.633C523.211 145.128 518.333 150.086 511.406 158.007C505.747 164.476 503.941 166.508 503.738 166.633C503.634 166.698 504.609 165.354 505.904 163.646ZM613.498 165.908C613.247 165.502 622.736 154.45 628.247 148.728C635.497 141.202 646.392 131.761 655.336 125.258C660.143 121.763 671.257 114.945 676.145 112.494C682.2 109.456 686.641 107.536 693.798 104.859C701.347 102.036 706.292 100.495 716.857 97.6717C733.641 93.1869 736.813 91.9394 744.984 86.6089C749.799 83.4677 751.764 82.3344 757.845 79.1906C762.026 77.0294 772.941 72.0975 773.129 72.2851C773.158 72.3143 771.797 72.9755 770.106 73.7546C760.358 78.2433 753.7 81.9243 746.082 87.0361C737.179 93.0101 734.354 94.1598 717.026 98.8582C704.292 102.311 697.49 104.548 687.885 108.444C685.192 109.537 678.081 112.851 675.553 114.191C670.461 116.893 660.61 123.017 656.211 126.216C650.781 130.165 641.59 137.735 636.193 142.704C629.041 149.288 624.838 153.554 618.286 160.879C616.381 163.009 614.55 165.052 614.216 165.419C613.857 165.815 613.564 166.014 613.498 165.908ZM399.859 139.2C399.86 138.846 403.103 137.194 405.011 136.576C406.911 135.961 408.018 135.792 410.966 135.669C413.802 135.55 414.417 135.755 412.241 136.094C409.364 136.541 403.831 137.976 400.07 139.25C399.954 139.289 399.859 139.267 399.859 139.2ZM40.1839 134.828C40.0017 134.608 39.9415 133.49 39.9027 129.603L39.8533 124.658L39.2626 124.208C38.9377 123.96 37.5156 123.26 36.1023 122.654C32.0269 120.904 31.0649 120.335 30.229 119.181C29.2985 117.896 29.6702 116.721 31.1261 116.344C31.5206 116.242 31.9644 116.124 32.1123 116.082C32.2602 116.039 32.5401 115.834 32.7343 115.627C33.0501 115.289 33.0675 115.175 32.899 114.546C32.7615 114.033 32.7606 113.576 32.8957 112.856C33.0765 111.893 33.0693 111.856 32.5884 111.278C32.3176 110.953 31.9088 110.333 31.6799 109.901C31.451 109.469 30.9857 108.886 30.6458 108.606C29.6764 107.806 29.3953 107.264 29.4024 106.208C29.4146 104.415 30.1137 103.208 31.9533 101.807C33.4574 100.661 34.7997 99.4526 34.7997 99.2447C34.7997 99.1582 34.5982 98.8232 34.3519 98.5002C33.8249 97.809 33.6476 96.5776 33.945 95.6758C34.054 95.3454 34.5578 94.6103 35.0645 94.0422C35.5712 93.474 36.2144 92.5757 36.4937 92.0459C36.7731 91.516 37.52 90.4986 38.1535 89.7848C39.544 88.2182 39.9076 87.2637 40.3621 83.9863C40.5313 82.7666 40.7933 81.5295 40.9443 81.2372C41.0954 80.945 41.219 80.5728 41.219 80.4101C41.219 80.2251 41.278 80.1745 41.3767 80.275C41.5938 80.496 41.8939 86.1755 41.8944 90.0697C41.8946 91.8363 41.9656 93.529 42.0523 93.8312C42.1389 94.1334 42.4424 94.5764 42.7267 94.8158C43.011 95.0551 43.5533 95.8465 43.9319 96.5744C44.3209 97.3225 45.011 98.2953 45.5192 98.8118C46.0137 99.3145 46.5746 100.032 46.7656 100.407C47.2868 101.429 47.5314 103.163 47.4061 104.947C47.3084 106.336 47.3401 106.611 47.7117 107.599C48.4148 109.467 48.7111 111.315 48.5883 113.064C48.4892 114.474 48.516 114.69 48.8931 115.521C49.5085 116.878 49.8875 119.019 49.8017 120.654C49.7431 121.771 49.6405 122.192 49.274 122.817C48.7733 123.672 47.772 124.563 46.6713 125.134C45.8309 125.569 43.7318 126.12 42.3593 126.265L41.388 126.367V130.472C41.388 133.977 41.3493 134.615 41.1225 134.841C40.7814 135.183 40.475 135.178 40.1839 134.828ZM44.8822 123.591C46.1435 123.188 47.321 122.326 47.6985 121.53C48.2067 120.459 47.8973 117.601 47.1115 116.11C46.7851 115.491 46.7446 115.135 46.7261 112.715C46.706 110.104 46.6858 109.956 46.1398 108.416C45.6702 107.091 45.5922 106.676 45.6797 105.965C45.9524 103.752 45.976 102.842 45.7848 101.921C45.61 101.079 45.4301 100.773 44.5338 99.7959C43.6078 98.7864 42.4016 96.7853 42.4016 96.2586C42.4016 96.1538 42.3256 96.0681 42.2326 96.0681C42.124 96.0681 42.0611 97.8333 42.0565 101.011C42.0525 103.73 41.9808 107.438 41.8971 109.25C41.5554 116.65 41.3335 123.567 41.4298 123.818C41.5674 124.177 43.4336 124.054 44.8822 123.591ZM40.0478 118.02C40.1361 115.938 40.2866 113.057 40.3822 111.616C40.6258 107.945 40.7597 95.2376 40.5933 91.5896C40.456 88.5792 40.4515 88.5531 40.1629 89.0849C40.0025 89.3804 39.4839 90.0649 39.0106 90.6059C38.5372 91.1469 37.9013 92.1219 37.5976 92.7726C37.2938 93.4232 36.7418 94.2978 36.3709 94.7161C35.0844 96.1671 34.9859 96.8352 35.8977 97.9271C37.0368 99.291 36.5665 100.299 33.8208 102.379C31.9017 103.833 31.3354 104.444 31.0907 105.326C30.8025 106.364 30.8721 106.558 31.9279 107.658C32.4854 108.239 32.9415 108.826 32.9415 108.963C32.9415 109.099 33.2774 109.619 33.6879 110.118C34.5966 111.223 34.7175 111.652 34.464 112.873C34.2971 113.677 34.31 113.931 34.5499 114.559C34.815 115.254 34.8144 115.336 34.5397 115.916C34.1969 116.638 33.1366 117.42 32.1317 117.691C31.7299 117.799 31.4211 117.984 31.4211 118.117C31.4211 118.486 32.5723 119.345 33.955 120.007C36.7889 121.363 39.3885 122.22 39.7507 121.918C39.8258 121.855 39.9594 120.101 40.0478 118.02ZM94.2749 114.25C94.1352 114.081 94.0548 112.389 94.0038 108.546C93.9283 102.851 93.9477 102.991 93.1998 102.758C93.033 102.706 92.7799 102.384 92.6372 102.043C92.4946 101.701 91.8727 100.959 91.2553 100.393C89.4861 98.7707 88.7068 97.899 88.3284 97.1187C87.7941 96.0171 87.9765 95.4646 89.3715 93.9595L90.5468 92.6914V91.2509C90.5468 90.2597 90.6759 89.3234 90.9606 88.2495C91.9861 84.381 92.8066 79.6919 93.0715 76.1846C93.1709 74.869 93.3277 73.3946 93.4199 72.9082C93.5121 72.4219 93.5929 71.6731 93.5994 71.2442C93.606 70.8154 93.6719 70.3125 93.7461 70.1266C93.8605 69.8396 93.9078 69.8907 94.0594 70.4646C94.4132 71.804 95.1079 81.8035 95.1079 85.556C95.1079 86.9901 95.1449 87.1458 95.7926 88.4404C96.2728 89.4002 96.6704 89.9487 97.1238 90.2768C98.4877 91.2636 100.177 92.7125 100.577 93.2382C101.113 93.9426 101.612 95.2196 101.875 96.5561C102.267 98.5482 101.649 100.173 99.5425 102.692C97.1124 105.597 96.7567 105.846 95.8622 105.259L95.4458 104.986V109.535C95.4458 112.847 95.3907 114.139 95.2431 114.286C94.97 114.559 94.5178 114.542 94.2749 114.25ZM97.8129 101.574C98.7137 100.606 99.5426 99.5339 99.7731 99.0387C100.554 97.3609 100.168 95.0399 98.9013 93.7929C97.808 92.7168 95.6264 90.9981 95.3538 90.9981C95.2386 90.9981 95.2621 97.7631 95.3889 101.107L95.4998 104.034L95.876 103.642C96.0829 103.427 96.9545 102.496 97.8129 101.574ZM93.9378 100.082C93.9446 99.9656 93.942 97.3229 93.9318 94.2091C93.9168 89.547 93.8627 88.3163 93.6254 87.2378C93.4669 86.5174 93.283 85.9281 93.2166 85.9281C93.1503 85.9281 93.0461 86.2132 92.9851 86.5618C92.9241 86.9104 92.7022 87.8539 92.4921 88.6586C92.2008 89.7741 92.1304 90.4066 92.1958 91.3209C92.3091 92.9045 91.9577 93.8229 90.7558 95.085C90.0831 95.7915 89.8683 96.1312 89.9439 96.3694C90.0004 96.5476 90.5535 97.18 91.173 97.7749C91.7925 98.3698 92.6082 99.1693 92.9857 99.5515C93.7279 100.303 93.9186 100.409 93.9378 100.082ZM96.8704 113.558C97.3288 113.147 98.203 112.601 98.8131 112.344C99.4233 112.088 100.341 111.632 100.852 111.332C102.094 110.603 104.829 109.524 106.583 109.072C107.681 108.789 108.34 108.721 109.455 108.776C110.736 108.84 111.835 109.135 111.614 109.356C111.571 109.398 110.671 109.581 109.615 109.761C108.558 109.941 107.237 110.213 106.68 110.365C105.59 110.661 101.944 112.068 101.003 112.555C100.687 112.718 99.8825 112.988 99.2142 113.156C98.546 113.323 97.6173 113.653 97.1504 113.89C95.967 114.49 95.9084 114.42 96.8704 113.558ZM582.474 110.306C582.48 110.027 584.227 107.871 585.054 107.126C586.815 105.542 590.819 102.887 593.425 101.575C594.972 100.797 599.672 98.7714 599.922 98.7749C600.034 98.7765 599.86 98.9412 599.535 99.1409C599.209 99.3406 597.955 100.149 596.747 100.938C595.539 101.727 593.487 103.02 592.186 103.811C589.398 105.508 585.385 108.237 583.791 109.522C582.661 110.432 582.471 110.545 582.474 110.306Z" fill="black"/>
</g>
<defs>
<clipPath id="clip0_1529_5492">
<rect width="818" height="434" fill="white"/>
</clipPath>
</defs>
</svg>
